<svg width="35" height="36" viewBox="0 0 35 36" fill="none" xmlns="http://www.w3.org/2000/svg">
<g filter="url(#filter0_d_36_481)">
<path d="M17.9038 27.6738C19.8213 27.6738 21.6582 27.416 23.0439 26.9648V24.7251C22.0771 25.1602 20.0469 25.4341 18.0166 25.4341C11.1362 25.4341 6.72119 21.0996 6.72119 14.3481V14.3159C6.72119 7.70947 11.1846 3.02051 17.4526 3.02051C23.7852 3.02051 28.0713 6.93604 28.0713 12.7529V12.7852C28.0713 16.4912 26.8628 18.8921 24.9614 18.8921C23.8657 18.8921 23.2534 18.2314 23.2534 17.1035V7.95117H20.5142V9.90088H20.2402C19.6118 8.48291 18.1777 7.62891 16.4858 7.62891C13.1987 7.62891 10.9429 10.3359 10.9429 14.2354V14.2676C10.9429 18.3442 13.1826 21.0835 16.5342 21.0835C18.4194 21.0835 19.8213 20.1973 20.498 18.5537H20.772L20.7881 18.6504C21.0942 20.1973 22.5283 21.1963 24.4297 21.1963C28.2002 21.1963 30.585 17.9092 30.585 12.7046V12.6724C30.585 5.66309 25.2837 0.796875 17.6299 0.796875C9.66992 0.796875 4.20752 6.25928 4.20752 14.2192V14.2515C4.20752 22.4209 9.55713 27.6738 17.9038 27.6738ZM17.0498 18.5698C15.1001 18.5698 13.9077 16.9585 13.9077 14.3481V14.3159C13.9077 11.6733 15.084 10.0942 17.082 10.0942C19.0962 10.0942 20.3853 11.7378 20.3853 14.3159V14.3481C20.3853 16.9263 19.0962 18.5698 17.0498 18.5698Z" fill="white"/>
</g>
<defs>
<filter id="filter0_d_36_481" x="0.207031" y="0.796875" width="34.3789" height="34.877" filterUnits="userSpaceOnUse" color-interpolation-filters="sRGB">
<feFlood flood-opacity="0" result="BackgroundImageFix"/>
<feColorMatrix in="SourceAlpha" type="matrix" values="0 0 0 0 0 0 0 0 0 0 0 0 0 0 0 0 0 0 127 0" result="hardAlpha"/>
<feOffset dy="4"/>
<feGaussianBlur stdDeviation="2"/>
<feComposite in2="hardAlpha" operator="out"/>
<feColorMatrix type="matrix" values="0 0 0 0 0 0 0 0 0 0 0 0 0 0 0 0 0 0 0.25 0"/>
<feBlend mode="normal" in2="BackgroundImageFix" result="effect1_dropShadow_36_481"/>
<feBlend mode="normal" in="SourceGraphic" in2="effect1_dropShadow_36_481" result="shape"/>
</filter>
</defs>
</svg>
