<svg width="255" height="221" fill="none" xmlns="http://www.w3.org/2000/svg"><path d="M255 92.638c0 70.416-57.084 127.5-127.5 127.5S0 163.054 0 92.638c0-70.417 74.854-30.21 145.27-30.21 70.416 0 109.73-40.207 109.73 30.21Z" fill="#2DDA93" fill-opacity=".2"/><path d="M152.128 84.862s.334-6.715 1.667-9.603c5.463-5.11 9.029-13.859 10.129-17.595 2.466-4.03 2.466-13.028 2.399-16.251-.067-.739-.067-1.142-.067-1.142-.333-5.91-17.126-46.001-47.648-35.592-25.723 8.797-27.856 27.265-29.522 43.92-.2 1.678-.333 3.357-.533 4.969-.2 1.41-.333 2.753-.533 4.096-2.665 18.468-24.057 33.108-24.057 33.108l14.394 33.174s40.651 5.91 41.651 6.044c.999.135-.2-8.663-.2-8.663s-3.865-2.753-4.732-4.634c-.2-.47-.133-1.275.067-2.216.6-2.686 2.399-6.581 2.799-7.387.066-.067.066-.134.066-.134s6.598 3.559 11.463 3.895c4.864.336 6.997-8.26 6.997-8.26 8.996-3.156 5.331-6.85 7.464-8.193 2.066-1.343 8.196-9.536 8.196-9.536Z" fill="#B06A46"/><path d="M9.519 140.927c6.796-16.718 18.3-34.984 30.653-41.76a1266.57 1266.57 0 0 0 6.577-3.634c11.126-6.179 12.113-6.727 18.613-6.44-1.266.067-3.598.806 2.866 7.185 8.197 8.059 21.391 17.461 21.391 17.461s20.126 19.408 30.722 6.984c.466-1.209.933-2.686 1.133-4.567.399-3.492-.4-6.379-.933-7.991 2.132.94 3.998 1.544 5.331 1.88 2.865.739 4.332 1.075 5.664.403 1.533-.806 2.733-2.686 2.933-3.022.29-.439.402-.718.477-.904.062-.154.098-.243.189-.305 1.599-1.276 13.395 6.246 20.725 18.67 8.73 14.774 9.53 33.846 9.53 33.846l3.065 18.534 1.533 9.066.467 2.821 1.532 9.402.067.537 1.066 6.581.2 1.209.701 4.364C159.608 216.897 143.916 220 127.5 220c-53.273 0-98.916-32.673-117.981-79.073Z" fill="#48A2F5"/><path d="M10.852 137.78s14.327-8.26 35.652 7.052l1 2.35s-18.326-14.438-37.785-6.783l1.133-2.619Zm16.825 34.048c-.78-.98-1.546-1.972-2.297-2.976 10.268.949 18.596 3.866 24.256 6.334.034.335.083.671.133 1.007.05.336.1.672.134 1.007-3.066-1.208-6.398-2.35-10.063-3.29a79.01 79.01 0 0 0-12.163-2.082Z" fill="#fff"/><path d="M46.504 144.832s36.053-24.378 114.822-5.239l.666 2.62s-63.708-19.543-114.488 4.969l-1-2.35Zm5.863 30.152c9.263-2.82 19.526-5.305 30.855-6.984 35.253-5.238 65.574-.806 86.966 4.567l.666 2.619a215.633 215.633 0 0 0-38.185-6.716c-33.187-2.686-60.91 3.022-79.835 8.73-.134-.671-.267-1.477-.467-2.216ZM69.16 205.9a125.572 125.572 0 0 1-3.553-1.904 145.578 145.578 0 0 1 19.15-5.642c36.785-8.394 68.506-1.343 86.965 4.567l.667 2.619c-10.663-3.022-23.525-5.708-38.186-6.716-25.959-1.782-48.263 2.206-65.042 7.076Z" fill="#fff"/><path d="M233.964 108.703s-9.996 13.767-11.728 15.446c-1.733 1.679 18.992 12.625 18.992 12.625l-7.264-28.071Z" fill="#F2F2F3"/><path d="m162.015 215.273-33.41-22.223 55.912-81.66s48.714 20.683 54.979 30.085c0 0 1.332-1.948 6.197-1.679 0 0-10.396-11.551-6.664-30.085l.866.403c.067 3.827.4 8.26 1.4 13.229 1.209 6.349 3.087 11.657 4.878 15.865-.252.64-.509 1.277-.771 1.912-10.855 14.032-21.726 28.079-32.596 42.125l-8.592 11.103a127.021 127.021 0 0 1-42.199 20.925Z" fill="#2DDA93"/><path d="M185.383 111.792s5.332-5.171 5.865-5.372c.533-.201 44.116 22.631 46.315 26.661 0 0-9.53-17.259-3.332-24.713l4.731 1.343s1.8 20.012 3.932 23.37c2.133 3.357 2.733 6.715 2.733 6.715l-6.864 2.753-53.38-30.757Z" fill="#fff"/><path d="M178.705 209.301C163.033 216.181 145.712 220 127.5 220c-.811 0-1.621-.008-2.428-.023-2.648-4.896-4.447-12.249-3.13-22.697 0 0 10.862-13.163 14.66-15.513 0 0-2.732 2.283-1.466 3.492 1.267 1.209 17.727-1.343 33.187-7.656.234-.101.484-.201.733-.302.25-.101.5-.201.734-.302a355.75 355.75 0 0 0 7.395-3.125c5.933-2.566 8.103-3.505 10.198-2.449.266.134 2.132 1.074 2.265 2.619.467 4.432-13.594 10.073-16.86 11.349-.036 0-.23.08-.539.206-.259.106-.598.245-.993.399-4.865 2.014-10.596 4.633-8.33 6.044.933.537 4.464-1.008 8.796-3.157 0 0 8.13-4.969 20.525-8.327l.008-.002c1.268-.336 3.528-.936 5.057.338 1 .806 1.6 2.283 1.4 3.559-.297 1.878-2.208 2.616-5.631 3.94-1.964.759-4.425 1.71-7.364 3.178-2.491 1.241-4.01 2.184-5.419 3.059-1.87 1.161-3.546 2.201-7.043 3.657-3.085 1.269-5.516 2.178-6.168 2.388l.354-.097c.987-.266 3.448-.931 5.947-1.754 3.656-1.152 6.613-2.15 9.022-2.963 6.858-2.314 9.274-3.129 10.704-1.738 1.199 1.142 1.266 3.492.466 4.768-.599.929-1.516 1.055-3.214 1.288-.759.105-1.673.23-2.783.458-2.739.526-6.051 1.887-12.621 4.587l-.441.181c-.305.129-.552.218-.764.294-.341.123-.588.212-.835.378-.961.714-5.571 3.053-8.173 4.373-.826.419-1.449.736-1.69.865.999-.47 8.263-3.626 11.662-4.701.133-.067.6-.268 1.333-.336.533-.067 1.133-.134 1.599.068.866.402 1.333 1.746 1.133 2.686a1.992 1.992 0 0 1-.081.269Z" fill="#A15C3A"/><path d="M79.92 210.826c7.982-.279 14.371-.676 13.498-1.526-.904-.88-9.108-.671-17.58-.2 1.35.598 2.71 1.174 4.083 1.726Zm-23.781-12.651a130.272 130.272 0 0 1-3.98-2.805c-1.496-13.519-3.433-31.06-3.79-35.294 0 0 5.969 22.296 7.77 38.099Z" fill="#000" opacity=".4"/><path d="M126.123 219.993a127.56 127.56 0 0 1-32.344-4.5c-.337-3.191-.522-5.799-.293-6.26.254-.512 3.322-1.651 7.283-3.12 6.419-2.381 15.181-5.632 18.107-8.498 2.191-2.131 3.033 2.512 4.225 9.088.738 4.072 1.611 8.886 3.022 13.29Z" fill="#4194E0"/><path d="M114.943 115.821c0-2.375 2-6.716 2.999-9.066l2.666 1.343c2.665 5.909.999 12.423-1 13.431-1.555-1.231-4.665-3.358-4.665-5.708Z" fill="#813F1E"/><path d="M120.475 108.098c-6.198-6.38-13.928-14.842-17.86-21.154 0 6.715 12.662 23.392 18.993 30.891.906-5.641-.378-8.842-1.133-9.737Z" fill="#000" fill-opacity=".2"/><path d="M188.943 141.801c1.31.739 2.499.518 3.101-.566.453-.815.18-1.771-.618-2.305l.019-.034a1.543 1.543 0 0 0 1.895-.686c.524-.943.131-1.945-1.022-2.595l-2.67-1.507-3.423 6.159 2.718 1.534Zm1.455-6.008 1.055.595c.6.339.788.815.512 1.31-.289.521-.849.603-1.533.216l-.923-.52.889-1.601Zm-2.355 4.239.994-1.789 1.076.607c.757.427.999.967.678 1.544-.327.589-.902.679-1.642.261l-1.106-.623Zm10.003-1.325c-1.82-1.027-3.64-.445-4.731 1.518-1.089 1.959-.63 3.827 1.19 4.854 1.816 1.025 3.641.446 4.729-1.514 1.091-1.963.628-3.833-1.188-4.858Zm-.597 1.076c1.003.566 1.19 1.748.471 3.041-.716 1.289-1.811 1.742-2.815 1.176-1.007-.569-1.197-1.747-.48-3.036.718-1.293 1.82-1.748 2.824-1.181Zm7.155 2.624c-1.82-1.027-3.641-.445-4.732 1.518-1.088 1.959-.629 3.828 1.191 4.855 1.816 1.024 3.64.445 4.729-1.514 1.091-1.964.627-3.834-1.188-4.859Zm-.598 1.076c1.004.566 1.19 1.748.472 3.041-.717 1.289-1.812 1.742-2.815 1.176-1.008-.569-1.197-1.747-.481-3.036.719-1.293 1.82-1.748 2.824-1.181Zm2.189 8.053 1.046-1.883.958-.367.39 3.6 1.536.867-.524-4.798 3.789-1.45-1.429-.806-3.866 1.508-.038-.022 1.561-2.808-1.285-.725-3.422 6.159 1.284.725Z" fill="#fff"/><path d="M148.456 69.624c1.492 5.956 3.48 12.854 3.48 14.84 0 1.985-5.965 1.82-8.948 1.488" stroke="#000" stroke-opacity=".2"/><path d="M143.486 95.171c-1.492.167-5.269.1-8.451-1.503" stroke="#6A351A"/><path d="M153.428 62.11c1.822-.501 6.561.1 8.947 2.504" stroke="#000" stroke-width="1.5"/><path d="M158.895 68.622c0 1.002-.995 1.502-1.492 2.504-1.098 0-1.491-.396-1.491-1.502 0-1.107.89-2.004 1.988-2.004.995 0 .995.938.995 1.002ZM166 38.07s-8.711-9.664-19.682-8.255c-3.125.403-6.251 1.678-11.304 5.638-5.32 4.161-13.365 11.678-20.48 24.362-.333.269-1.53 1.007-3.259.873-1.462-.134-2.46-.873-2.859-1.208 6.184-12.282 4.189-23.49-.266-25.638-4.189-2.013-12.966 2.55-19.15 12.55 1.662-16.644 3.79-35.167 29.457-43.892C148.978-7.903 165.668 32.097 166 38.07Z" fill="#000"/><path d="M96.5 43c1.667-2.833 6.4-7.4 12-3-1.667-1-6.4-1.8-12 3Z" fill="#000" fill-opacity=".4"/><path d="M131.5 52c3.167-1 10.6-1.4 15 5" stroke="#000" stroke-width="1.5"/><circle cx="138" cy="60" r="2" fill="#000"/></svg>