<svg width="247" height="238" fill="none" xmlns="http://www.w3.org/2000/svg"><path d="M246.081 111.645c0 69.376-54.952 125.616-122.74 125.616-67.787 0-122.74-56.24-122.74-125.616s72.06-29.763 139.847-29.763 105.633-39.613 105.633 29.763Z" fill="#2DDA93" fill-opacity=".2"/><path d="M162.341 137.266c-5.9-1.6-11.7-3.3-17.6-4.9-.9-.2-2.1-.6-2.8-1.6-1.2-1.7-.3-4.3 0-5.3 1.6-4.5 7.6-21.9 16-45.6 1.1-3.1 4.4-4.9 7.5-4l16.7 4.7c3.1.9 4.7 4 3.6 7.1l-16 45.6c-1 3.1-4.3 4.8-7.4 4Z" fill="#000"/><g opacity=".9" filter="url(#Group__a)"><path d="m184.141 86.666-16.7 47.6c-.5 1.5-2.2 2.3-3.7 1.9l-19.2-5.3c-1.5-.4-2.3-1.9-1.8-3.4l16.7-47.6c.5-1.5 2.1-2.3 3.7-1.9l2.8.8-.1.3c-.4 1 .2 2.1 1.2 2.4l10.1 2.8c1 .3 2.2-.3 2.5-1.3l.1-.4 2.6.7c1.6.4 2.4 1.9 1.8 3.4Z" fill="#2DDA93"/></g><path opacity=".9" d="m173.442 81.766-3.101-.9c-.2-.1-.4-.3-.3-.5.1-.2.3-.4.6-.3l3.1.9c.2.1.4.3.3.5-.1.2-.299.3-.599.3Z" fill="#F4FCD9"/><path d="m180.841 101.766 2.4-6.9c.3.1.4.3.3.6l-2.1 5.9c0 .3-.3.5-.6.4Z" fill="#000"/><path opacity=".9" d="M175.541 81.766c-.1.2-.3.4-.6.3-.2-.1-.4-.3-.3-.5.1-.2.3-.4.6-.3.3.1.4.3.3.5Z" fill="#F4FCD9"/><path opacity=".4" d="m148.641 151.366-56.4-17.5c-2.7-.8-4.3-3.5-3.6-6.1 10.6-35.6 21.2-71.3 31.8-106.9.7-2.4 3.3-3.8 5.9-3.2l58.7 13.3c3 .7 4.8 3.5 4 6.2-11.3 37-22.7 74-34 111-.8 2.7-3.7 4.1-6.4 3.2Z" fill="#2DDA93"/><path d="M145.741 69.366s-.1-.8-.3-1.5c-.2-.7-.4-1.5-.4-1.5.1-.6.3-1.1.5-1.7.2-.6.5-1.1.7-1.7 0 0 .3.4.5.8.3.4.5.8.5.8s-.2-.5-.3-1.1c-.2-.5-.3-1.1-.3-1.1.6-1.1 1.3-2.1 2-3.1 0 0 .3.4.5.7.3.4.5.7.5.7s-.2-.5-.3-.9c-.2-.5-.4-.9-.4-.9.8-1 1.6-1.9 2.4-2.8 0 0 .2.3.5.5.2.3.5.5.5.5s-.2-.4-.3-.7c-.2-.4-.3-.7-.3-.7 1.4-1.5 2.7-2.7 3.7-3.6.5-.5.9-.8 1.2-1.1.3-.2.4-.4.4-.4s-.1.4-.4 1c-.2.7-.6 1.6-1 2.7-.9 2.2-2.1 5.2-3.6 8-.7 1.4-1.5 2.8-2.3 4.1-.8 1.3-1.6 2.5-2.3 3.4-.7.9-1.5 1.6-2 2.1-.3.2-.5.4-.6.5-.2.1-.2.2-.2.2.1-2.1.1-3.7.3-5.2 0 0 .2.4.5.9l.3.6v.5Z" fill="#56873D"/><path d="M148.441 71.566s.2 0 .5-.1c.3 0 .7-.1 1.2-.2.8-.2 1.7-.4 1.7-.4.6-.5 1.1-1 1.6-1.5s.9-1.1 1.2-1.7h-1.8s.6-.2 1.2-.3c.6-.2 1.2-.3 1.2-.3.7-1.2 1.2-2.5 1.6-3.8h-1.8s.5-.2 1-.3c.5-.2 1-.3 1-.3.4-1.3.6-2.7.7-3.9 0 0-.4 0-.7.1-.4 0-.7.1-.7.1s.4-.1.7-.3c.4-.1.7-.3.7-.3.2-2.2 0-4.1-.1-5.4-.1-.7-.2-1.2-.3-1.6-.1-.4-.1-.6-.1-.6s-.1.4-.4 1c-.2.7-.6 1.6-1 2.7-.9 2.2-2.1 5.2-3.6 8-.7 1.4-1.5 2.8-2.3 4.1-.8 1.3-1.6 2.5-2.3 3.4-.7.9-1.5 1.6-2 2.1-.3.2-.5.4-.6.5-.2.1-.2.2-.2.2 1 .3 2 .3 3.1.1 1-.2 2-.6 2.8-1.1 0 0-.5-.1-1-.1-.3 0-.5-.1-.7-.1h-.6Z" fill="#669A41"/><path d="m141.041 72.166-.1-.1c-.1-.1-.2-.1-.3-.2-.2-.2-.6-.4-.9-.6-.3-.2-.7-.4-.9-.6-.3-.1-.4-.2-.4-.2-.4-.5-.7-1.1-1.1-1.7-.4-.6-.8-1.3-1.1-2.1l1 .2 1 .2s-.1-.1-.4-.2c-.2-.1-.5-.3-.8-.4-.3-.2-.6-.3-.8-.5l-.4-.2c-.7-1.6-1.2-3.4-1.5-5.2 0 0 .5.2.9.3.5.2.9.3.9.3s-.5-.3-1-.7l-1-.8c-.2-1.9-.2-3.8.1-5.5 0 0 .1.1.2.1.1.1.3.2.5.3.2.1.3.2.5.3.1.1.2.1.2.1l-.2-.2c-.1-.1-.3-.3-.4-.5l-.6-.8c.3-1.5.8-2.8 1.4-3.9.6-1.1 1.2-2 1.8-2.6.6-.7 1.2-1.1 1.5-1.3.4-.3.6-.4.6-.4s-.1.1-.2.3c-.1.2-.3.5-.5.9-.4.8-.9 2-1.2 3.5-.3 1.5-.4 3.3-.2 5.2.2 1.9.7 3.9 1.4 5.8s1.5 3.8 2.2 5.6c.4.9.7 1.7.9 2.6.3.8.4 1.6.5 2.4.2 1.5 0 2.8-.3 3.6-.1.4-.3.7-.4 1-.1.2-.2.3-.2.3-.3-1.1-.7-2-1.2-2.8-.5-.8-1-1.4-1.4-2.1 0 0 .1 0 .3.1.2.1.4.1.6.2.5.1 1 .3 1 .3Z" fill="#56873D"/><path d="M144.441 72.066s0-.1.1-.1c.1-.1.1-.2.2-.4.2-.3.4-.8.6-1.3.2-.5.4-1 .5-1.4.1-.4.2-.6.2-.6-.1-1-.2-1.9-.5-2.8-.2-.9-.5-1.7-.8-2.4l-.6.8-.6.8s0-.2.1-.4.2-.6.3-.9l.3-.9c.1-.2.1-.4.1-.4-.6-1.5-1.2-2.8-1.8-4.1 0 0-.3.3-.6.7-.3.3-.6.7-.6.7s.2-.5.5-1c.2-.5.5-1 .5-1-.6-1.3-1.2-2.5-1.6-3.7 0 0-.1 0-.2.1s-.3.2-.4.3c-.2.1-.3.2-.4.3-.1.1-.2.1-.2.1l.2-.2c.1-.1.2-.3.4-.4.3-.3.5-.6.5-.6-.4-1-.7-2-.9-3-.2-.9-.3-1.8-.3-2.6s0-1.4.1-1.8c.1-.4.1-.7.1-.7s-.1.1-.2.3c-.1.2-.3.5-.5.9-.4.8-.9 2-1.2 3.5-.3 1.5-.4 3.3-.2 5.2.2 1.9.7 3.9 1.4 5.8s1.5 3.8 2.2 5.6c.4.9.7 1.7.9 2.6.3.8.4 1.6.5 2.4.2 1.5 0 2.8-.3 3.6-.1.4-.3.7-.4 1-.1.2-.2.3-.2.3 1.1-.3 2.2-1.1 2.9-2.2.7-1.1 1.2-2.4 1.4-3.8 0 0-.1.1-.2.3-.1.2-.3.4-.5.6l-.8.8Z" fill="#486D33"/><path d="M143.141 75.666s0-.8.1-1.6c0-.4.1-.8.1-1.1 0-.3.1-.5.1-.5.8-1.1 1.8-2 3-2.8v1.8s.1-.6.3-1.1c.1-.3.2-.6.2-.8.1-.2.1-.4.1-.4.3-.2.6-.3.9-.5.3-.1.6-.3 1-.4.6-.2 1.3-.4 2-.5 0 0-.1.4-.1.9-.1.4-.1.9-.1.9s.2-.5.4-.9c.2-.5.4-.9.4-.9.7-.1 1.3-.2 2-.2h1c.3 0 .6 0 .9.1 0 0-.1.3-.2.7-.1.3-.2.7-.2.7s.2-.3.4-.7c.2-.3.4-.7.4-.7h.4c.1 0 .3 0 .4.1.3 0 .5.1.7.1.2.1.5.1.7.2.2.1.4.1.7.2.8.2 1.6.6 2.1.8.3.1.5.3.8.4l.6.3c.3.2.5.3.5.3h-2.1c-.2 0-.5 0-.7.1-.2 0-.5.1-.8.1-1.1.1-2.3.4-3.6.7-1.3.4-2.7.8-4 1.4-1.3.6-2.6 1.3-3.8 2-1.1.7-2.2 1.5-3 2.2-.2.2-.4.3-.6.5-.2.2-.4.3-.5.5-.2.1-.3.3-.5.4l-.4.4c-.4.5-.7.7-.7.7-.1-.5-.1-1-.2-1.4v-.7c0-.2 0-.5.1-.7.1-.5.2-.9.3-1.3.1-.4.3-.8.5-1.2l.2 1c.1.4.2.9.2.9Z" fill="#56873D"/><path d="M145.441 78.266s.7.1 1.5.3c.4.1.7.2 1 .3.3.1.4.1.4.1 1-.2 2-.6 2.9-1 0 0-.3-.3-.7-.5-.3-.3-.7-.5-.7-.5l1 .4c.2.1.5.2.7.3.2.1.3.1.3.1.2-.1.4-.2.6-.4.2-.1.4-.2.6-.4.4-.3.8-.5 1.3-.8l-.6-.6-.6-.6s.4.2.8.5c.4.2.8.5.8.5.4-.3.8-.6 1.3-.9.2-.1.4-.3.6-.5.2-.1.4-.3.6-.4l-.4-.6-.4-.6.6.4.6.4c1.4-1 2.7-2 3.7-2.6.3-.2.5-.3.7-.5.2-.1.4-.3.5-.3.3-.2.5-.3.5-.3h-2.1c-.2 0-.5 0-.7.1-.2 0-.5.1-.8.1-1.1.1-2.3.4-3.6.7-1.3.4-2.7.8-4 1.4-1.3.6-2.6 1.3-3.8 2-1.1.7-2.2 1.5-3 2.2-.2.2-.4.3-.6.5-.2.2-.4.3-.5.5-.2.1-.3.3-.5.4l-.4.4c-.4.5-.7.7-.7.7.5.1 1 .1 1.4.1h2.6c.4 0 .8-.1 1.1-.1 0 0-.4-.2-.9-.5-.7-.1-1.1-.3-1.1-.3Z" fill="#486D33"/><path d="m139.841 72.666-.3-.6c-.2-.3-.4-.8-.7-1.3-.2-.5-.5-1-.6-1.3l-.3-.6c-.1-1 0-2.1.1-3.2s.3-2.1.5-3.1c0 0 .3.4.6.9.2.2.3.4.4.6.1.2.2.3.2.3s-.1-.2-.2-.5-.2-.6-.3-1c-.1-.4-.2-.7-.3-1-.1-.3-.1-.5-.1-.5.6-2.1 1.4-4 2.3-5.8 0 0 .3.4.5.9.3.4.5.9.5.9s-.1-.7-.3-1.3c-.1-.7-.3-1.3-.3-1.3 1-1.8 2.1-3.4 3.2-4.9l.7 1.4-.2-1-.2-1c1-1.2 1.9-2.3 2.8-3.3.5-.5.9-1 1.4-1.4.4-.4.9-.8 1.3-1.1.8-.6 1.5-1 2-1.2.2-.1.4-.2.6-.2.1 0 .2-.1.2-.1l-.3.3-.4.4c-.1.2-.3.3-.5.5-.7.8-1.6 2.1-2.4 3.7-.4.8-.8 1.7-1.3 2.6-.4.9-.9 1.9-1.4 3-.9 2.1-1.8 4.3-2.6 6.6s-1.5 4.6-2 6.8-.8 4.3-.9 6.1c-.1 1.8-.1 3.3-.1 4.4v1.6c-1.8-1.8-2.9-4.3-3.4-6.9l.8.8c.6.4 1 .8 1 .8Z" fill="#94C93D"/><path d="M143.241 72.866s.2-.2.4-.5.6-.7.9-1c.3-.4.7-.7.9-1l.4-.4c.7-1.6 1.2-3.3 1.8-5 0 0-.5.2-.9.4-.2.1-.5.2-.6.3-.2.1-.3.1-.3.1l.3-.3c.2-.2.5-.4.8-.6.3-.2.6-.4.8-.6l.3-.3c.5-1.7 1-3.5 1.4-5.3 0 0-.5.1-.9.3-.5.1-1 .3-1 .3s.5-.4 1-.7c.5-.3 1.1-.7 1.1-.7.4-1.8.8-3.6 1.2-5.3l-1.6.4s.4-.3.8-.5.8-.5.8-.5c.3-1.5.5-2.9.7-4.1.2-1.2.4-2.2.6-3.1.2-.9.5-1.5.7-2 .1-.2.2-.4.3-.5.1-.1.1-.2.1-.2l-.3.3-.4.4c-.1.2-.3.3-.5.5-.7.8-1.6 2.1-2.4 3.7-.4.8-.8 1.7-1.3 2.6-.4.9-.9 1.9-1.4 3-.9 2.1-1.8 4.3-2.6 6.6s-1.5 4.6-2 6.8-.8 4.3-.9 6.1c-.1 1.8-.1 3.3-.1 4.4v1.6c1.5-2.1 2.6-4.2 3.5-6.3 0 0-.5.3-.9.6-.2.2-.7.5-.7.5Z" fill="#70B744"/><path d="m137.741 77.866-.4-.2c-.3-.1-.6-.3-.9-.4-.3-.1-.7-.2-1-.3-.3-.1-.4-.1-.4-.1-.8-.7-1.4-1.5-2.1-2.3 0 0 .4-.1.9-.2.2 0 .4-.1.6-.1h.3s-.5-.1-1.1-.1h-1c-.6-.8-1.3-1.7-1.9-2.7 0 0 .4-.2.8-.3.4-.1.8-.3.8-.3s-.5 0-1 .1c-.2 0-.5 0-.7.1h-.3c-.7-1-1.3-2-2-2.9 0 0 .3-.2.6-.3.3-.2.6-.3.6-.3s-.4.1-.8.1c-.4.1-.8.1-.8.1-1.1-1.7-2.2-3.3-2.9-4.5-.7-1.2-1.1-2-1.1-2s.4.2 1 .6c.6.4 1.5.9 2.5 1.6 2.1 1.4 4.8 3.3 7.1 5.8 1.1 1.2 2.2 2.5 3 3.9.8 1.3 1.4 2.7 1.7 3.9.3 1.2.4 2.3.3 3 0 .4-.1.6-.1.8 0 .2-.1.3-.1.3-.6-.8-1.3-1.5-1.9-2-.6-.5-1.2-1-1.7-1.5 0 0 .5 0 1 .1.5 0 1 .1 1 .1Z" fill="#56873D"/><path d="M141.141 77.166s.1-.2.3-.5c.1-.3.3-.7.5-1.1.2-.4.3-.9.4-1.2.1-.2.1-.3.1-.4v-.2c-.2-1.6-.9-3.2-1.7-4.6 0 0-.2.5-.4.9l-.3.6c-.1.2-.1.3-.1.3s.1-.6.2-1.3c0-.3.1-.7.1-.9v-.4c-1-1.3-2.2-2.4-3.4-3.3 0 0-.1.5-.2.9-.1.5-.2.9-.2.9s0-.6-.1-1.1c0-.3 0-.6-.1-.8v-.3c-1.3-.8-2.6-1.5-3.9-1.9 0 0 0 .4-.1.7 0 .4-.1.7-.1.7s-.1-.4-.1-.8c-.1-.4-.1-.8-.1-.8-2.2-.7-4.1-1-5.5-1.2-1.4-.1-2.3-.2-2.3-.2s.4.2 1 .6c.6.4 1.5.9 2.5 1.6 2.1 1.4 4.8 3.3 7.1 5.8 1.1 1.2 2.2 2.5 3 3.9.8 1.3 1.4 2.7 1.7 3.9.3 1.2.4 2.3.3 3 0 .4-.1.6-.1.8 0 .2-.1.3-.1.3.5-.2.9-.6 1.3-1s.7-.8.9-1.3c.5-1 .8-2.1.8-3.2 0 0-.3.4-.7.8-.4.4-.7.8-.7.8Z" fill="#669A41"/><path d="m153.441 78.666-25.1-7.7-4.2 21.4 20.8 6.4 8.5-20.1Z" fill="#7D5426"/><path d="m153.441 81.766-26.9-8.2.6-2.9 27.4 8.3-1.1 2.8Z" fill="#956235"/><path d="m143.041 34.266-11.4-2.9-2.9 11.4m30-5.7 11.3 3.1-3.1 11.4m-14.2 47.1-3.8 11.2-11.1-3.8m-21.3-19.2-3.8 12.7 11.3 3.4" stroke="#F4FCD9" stroke-miterlimit="10"/><path d="M115.401 105.475c-1.802-.536-3.291.337-3.867 2.274-.575 1.934.194 3.479 1.997 4.015 1.798.535 3.291-.337 3.866-2.27.576-1.938-.197-3.484-1.996-4.019Zm-.315 1.061c.994.296 1.389 1.294 1.01 2.57-.379 1.272-1.254 1.888-2.248 1.592-.999-.297-1.395-1.291-1.017-2.563.38-1.276 1.261-1.894 2.255-1.599Zm5.013 1.533 1.083.322c.632.188.915.685.74 1.275-.18.602-.664.857-1.304.666l-1.095-.325.576-1.938Zm-.85 2.86 1.019.303.472 2.561 1.44.429-.562-2.795c.78-.065 1.385-.619 1.617-1.398.357-1.201-.224-2.176-1.623-2.592l-2.489-.74-1.808 6.078 1.272.378.662-2.224Zm6.248 4.394c1.492.444 2.788-.106 3.334-1.42l-1.238-.368c-.349.68-1.024.961-1.778.736-.973-.289-1.346-1.271-.96-2.568.381-1.281 1.239-1.901 2.2-1.615.741.22 1.169.879 1.065 1.66l1.238.368c.308-1.389-.528-2.647-1.99-3.081-1.761-.524-3.229.327-3.812 2.286-.583 1.963.172 3.476 1.941 4.002Zm8.776 2.496 1.808-6.078-1.272-.378-.734 2.468-2.738-.815.734-2.468-1.272-.378-1.808 6.078 1.272.378.762-2.561 2.738.815-.762 2.561 1.272.378Zm2.283.679 1.808-6.078-1.272-.378-1.808 6.078 1.272.378Zm2.819-5.777-1.808 6.078 2.321.69c1.824.543 3.235-.271 3.809-2.2.574-1.929-.177-3.335-2.001-3.878l-2.321-.69Zm.96 1.427.897.267c1.121.333 1.545 1.22 1.166 2.492-.391 1.314-1.211 1.822-2.348 1.484l-.898-.267 1.183-3.976Z" fill="#F4FCD9"/><path opacity=".1" d="M79.541 113.866c-3.5-1.2-8.4-4.5-9.9-13.7s4.2-1.2 8.7 6.1c.8 2.9 1.1 5.6 1.2 7.6Z" fill="#000"/><path d="M104.441 75.366c-1.2-2-2-4.1-3-6.2-3.5-7-1.6-12.3-4.3-18.1-1.4-2.9-4.2-6.8-11.1-10-6.4 3.7-12.9 7.4-19.3 11.1l-3.4 38.3c-1.8-.6-3.5-1.1-5.2-1.5-4-1.1-7.4-1.4-9.9-1.5.5 3.9.9 8.8.4 14.4-.3 3.3-.8 6.3-1.4 8.9 1.9 1.7 4.3 3.6 7.5 5.1 10.8 5.1 21.4 2.1 24.8.9 0-.7.1-1.8.1-3.2 0-1.3-.1-2.8-.4-4.5 3.8 1.2 8.8 1.9 13.4-.2 1.1-.5 3.2-1.5 4.8-3.7 1.7-2.3 2-4.5 2.6-10.1.5-4.6.8-8.6 1-11.6.5.1 1.2.1 2-.1 1.5-.3 3.5-1.4 3.9-2.9.2-1.3-.9-2.3-2.5-5.1Z" fill="#BB6D43"/><path opacity=".1" d="M79.541 113.866c-2.8-1-6.7-3.3-8.8-9.2.8.6 1.6 1.3 2.6 1.8.3.2 2.6 1.5 5.7 2.6.3 1.8.4 3.5.5 4.8Z" fill="#000"/><path d="M88.242 75.666c-1.9-3.7-2.5-6.7-2.6-8.9-.5-6.8 2.7-11.4 0-14.8-1.4-1.7-3-1.7-3.1-2.8-.1-2.1 6.2-2.1 10.4-6.5 3.7-3.8 3.5-9.5 3.3-14.4-.5-12.5-6.6-22.2-10.6-27.4-6.7 18.6-15.5 25.7-22.7 28.6-8 3.3-18.1 2.9-24 11-2.3 3.2-3.1 6.5-3.5 8.7-5.3 4.5-6.3 8.4-6.5 10.6-.4 5.1 3.1 7 9.7 18.4 5.6 9.7 5.1 11.7 8.4 13.5 6.5 3.4 16.9.3 20.7-5.8 1.7-2.7 2.1-5.9 2.4-7.7.8-5.5-.7-8 1.3-11.8.5-1 1.6-3.1 3.7-3.6 2.6-.7 5.5 1.6 6.8 3.6.6.9.6 1.3 1.8 4.8.7 2 1.3 3.6 1.7 4.8.9.1 1.8-.1 2.8-.3Z" fill="#000"/><path d="M70.341 75.566c.578 3.594 6.236 6.173 9.51 7.746-1.26.11-7.263-2.881-9.988-4.388.093-.39.084-2.424.478-3.358Zm9.996-4.366c-1.112-1.663-4.664-3.257-6.301-3.847 7.211-.01 8.078 4.945 7.61 7.423.027-.5-.197-1.914-1.309-3.576Z" fill="#000" fill-opacity=".4"/><path d="M98.841 56.672c-1.714-.799-5.914-1.437-9 2.394" stroke="#000" stroke-width="2"/><path d="M99.841 93.97c-1.625.326-3.5.096-9-1.904" stroke="#522109" stroke-width="1.3"/><circle cx="98.341" cy="63.566" r="1.5" fill="#000"/><path d="M109.021 236.279c-1.436-3.692-2.18-6.213-2.18-6.213-.3-.8-.575-1.6-.85-2.4-.275-.8-.55-1.6-.85-2.4 6-3.65 11.975-7.275 17.95-10.9s11.95-7.25 17.95-10.9l1.2-.8.6-4.2.6-4.4s6.5-25.6 9.5-32.4c2.137-4.843 1.737-14.303 1.439-21.369-.121-2.855-.225-5.32-.139-6.931.3-5.6 1.5-14.3 4.3-13 2.8 1.3 1.8 12.2 1.8 12.2s1.4 4 5.2 2c2.818-1.483 5.856-9.014 8.175-14.765.809-2.005 1.531-3.794 2.125-5.035.3-.6 3.5-5.1 4.6-4.6.826.525.244 3.075-.52 6.427a133.99 133.99 0 0 0-.78 3.573c-1.457 7.285-1.248 11.466-1.072 14.976.174 3.477.315 6.296-1.228 10.824-1.292 3.829-2.635 5.506-4.026 7.246-1.407 1.759-2.865 3.581-4.374 7.754-1.642 4.533-1.731 8.289-1.825 12.289-.049 2.089-.1 4.244-.375 6.611-1 9.1-2.2 21-3.3 34.9-.497 6.12-1.261 11.591-2.153 16.406-11.805 3.866-24.388 5.953-37.447 5.953-4.844 0-9.622-.287-14.32-.846Z" fill="#BB6D43"/><path opacity=".2" d="m146.872 234.819-.843.165c-1.576-8.023-4.115-21.787-4.988-31.318l1.2-.8.6-4.2c1 4.4 2.3 11.2 2.9 19.2.447 6.946.844 12.808 1.131 16.953Z" fill="#000"/><path d="M2.742 134.99a154.89 154.89 0 0 1 8-13.324c2.9-4.3 6.9-9.6 13.9-12.4 6.5-2.6 12.8-1.8 16.3-1.1 10.3.2 18.7 1.2 24.7 2.2 12.4 1.9 23.4 3.7 35.9 10.1 6.9 3.5 12.6 6.5 18.1 12.5 6.778 7.522 8.5 14.908 11.717 28.709a768.566 768.566 0 0 0 2.283 9.591c2 8.9 5.4 21.6 10.4 37-4.5 3.7-10.6 8.1-18.4 11.9-6.4 3.1-12.4 5.1-17.3 6.4-.2 1-.375 2.025-.55 3.05-.175 1.025-.35 2.05-.55 3.05a215.546 215.546 0 0 0-.505 3.319c-52.373-7.248-94.26-48.304-103.995-100.995Z" fill="#48A2F5"/><path opacity=".2" d="M101.773 235.192c-1.964-12.52-5.006-33.098-9.632-65.426 0 0 9.8 53.5 10.8 55.3.1.3.2.575.301.85.099.275.199.55.299.85.5.1 1.1.1 1.7.1 1.1 0 2.1-.1 3-.2-.693 3.842-1.188 6.886-1.528 9.316-1.658-.23-3.305-.493-4.94-.79Z" fill="#000"/><path d="M108.241 226.666s-2.1.3-2.6.2l1.8 5.4c.6 1.4.8-5.6.8-5.6Z" fill="#F8BC9C"/><path d="M223.921 153.856s-.758-1.745-1.706-3.297c-.947-1.649-1.895-3.201-1.895-3.201a31.969 31.969 0 0 1 0-4.267c.095-1.455.284-3.006.474-4.461 0 0 .853.679 1.706 1.455a39.39 39.39 0 0 1 1.705 1.454l-1.516-2.327-1.516-2.328c.569-2.909 1.421-5.819 2.464-8.631 0 0 .853.678 1.706 1.26a32.505 32.505 0 0 0 1.705 1.261s-.758-.97-1.421-1.939c-.758-.97-1.422-1.94-1.422-1.94 1.043-2.813 2.275-5.528 3.507-8.147 0 0 .758.485 1.421.97s1.422.97 1.422.97-.569-.679-1.232-1.455c-.569-.679-1.232-1.455-1.232-1.455 2.179-4.461 4.264-8.34 5.875-11.153.853-1.455 1.516-2.521 1.99-3.297.474-.776.758-1.261.758-1.261s0 .97-.095 2.715c-.094 1.746-.189 4.171-.379 7.08-.379 5.916-1.326 13.675-2.748 21.434-.663 3.879-1.516 7.662-2.369 11.25-.853 3.588-1.8 6.886-2.937 9.601-1.043 2.716-2.18 4.947-3.128 6.401-.474.679-.853 1.261-1.137 1.649a4.486 4.486 0 0 0-.379.582c-1.232-4.946-2.369-8.729-2.938-12.511 0 0 .853.873 1.611 1.746.379.388.853.873 1.138 1.26.379.291.568.582.568.582Z" fill="#56873D"/><path d="M239.575 151.972c-.27.467-.558.933-.871 1.399 0 0-1.8 1.067-3.601 2.037-.948.485-1.895.97-2.559 1.261-.663.291-1.137.485-1.137.485s.379-.097.664-.194c.404 0 .878-.071 1.421-.152l.284-.042 2.464-.388c-1.611 1.843-3.506 3.394-5.686 4.558a16.588 16.588 0 0 1-7.107 1.94s.095-.194.379-.582c.16-.218.349-.497.569-.82.171-.252.361-.531.568-.829.948-1.454 2.085-3.685 3.127-6.401 1.138-2.715 2.085-6.013 2.938-9.601.853-3.589 1.706-7.371 2.369-11.25 1.422-7.759 2.369-15.518 2.748-21.434.13-1.992.216-3.757.287-5.232.033-.679.063-1.297.092-1.848.095-1.745.095-2.715.095-2.715s.19.485.664 1.261c.473.872 1.042 2.036 1.705 3.588 1.327 3.007 2.938 7.468 4.075 12.608 0 0-.758.679-1.516 1.261l-1.516 1.164s.758-.388 1.611-.679c.853-.388 1.611-.679 1.611-.679.663 3.006 1.042 6.304 1.137 9.698 0 0-.948.776-1.99 1.552-1.043.679-2.085 1.455-2.085 1.455s1.042-.291 2.085-.679a29.946 29.946 0 0 0 2.049-.666 127.093 127.093 0 0 1-2.213 10.78c-.351.23-.752.489-1.163.748l-2.464 1.552s1.137-.291 2.18-.582c.382-.098.753-.196 1.078-.282a126.502 126.502 0 0 1-2.292 7.708Z" fill="#669A41"/><path d="M215.014 163.943s-.095-.097-.285-.194c-.189-.097-.473-.194-.853-.388-.663-.291-1.611-.582-2.463-.873-.948-.291-1.896-.485-2.559-.679-.663-.097-1.137-.194-1.137-.194-1.232-.97-2.464-2.037-3.791-3.2-1.326-1.164-2.653-2.619-4.075-4.171 0 0 1.232-.097 2.37-.194 1.137-.097 2.369-.291 2.369-.291s-.379-.097-.948-.194-1.327-.29-2.18-.484a30.965 30.965 0 0 0-2.179-.485c-.569-.097-.948-.194-.948-.194a58.743 58.743 0 0 1-7.012-11.057s1.232.097 2.369.097h2.369s-1.422-.484-2.748-.969c-1.422-.485-2.843-1.164-2.843-1.164-1.801-4.171-3.127-8.729-3.696-12.996 0 0 .19.097.569.194.379.097.852.194 1.232.388.473.097.947.291 1.231.388.38.097.569.097.569.097l-.569-.388c-.379-.194-.852-.582-1.326-.873l-1.896-1.358c-.284-3.685-.094-7.177.474-10.183.569-3.007 1.422-5.528 2.369-7.468.948-1.94 1.896-3.297 2.559-4.267.758-.873 1.137-1.358 1.137-1.358l-.284.873c-.19.582-.379 1.358-.569 2.424-.379 2.134-.663 5.238-.284 9.02.379 3.685 1.421 7.953 3.317 12.317 1.8 4.267 4.359 8.535 7.297 12.608 2.842 4.073 5.97 7.856 8.907 11.444 1.422 1.843 2.843 3.588 3.98 5.334 1.138 1.746 2.18 3.589 2.843 5.237 1.517 3.395 1.896 6.595 1.896 8.729 0 1.067-.19 1.94-.19 2.521-.095.582-.189.873-.189.873-1.422-2.424-3.128-4.17-4.739-5.722-1.611-1.455-3.222-2.618-4.738-3.782h.758c.474 0 1.043 0 1.611.097 1.043.291 2.275.485 2.275.485Z" fill="#56873D"/><path d="M222.69 161.13s0-.194.094-.388c.095-.291.19-.679.285-1.067.189-.969.379-2.23.568-3.491.19-1.261.19-2.619.285-3.588v-1.649c-.853-2.328-1.896-4.364-3.033-6.304-1.137-1.94-2.274-3.588-3.411-5.14l-.759 2.327c-.379 1.164-.663 2.328-.663 2.328v-6.498c-2.369-3.006-4.738-5.722-7.012-8.244 0 0-.474.97-.948 2.037s-.948 2.037-.948 2.037.095-1.358.379-2.716a36.53 36.53 0 0 1 .474-2.618c-2.274-2.522-4.454-5.044-6.254-7.371l-.379.388c-.19.291-.474.582-.758.97-.285.388-.569.678-.759.969-.189.291-.284.485-.284.485s.095-.194.19-.582c.094-.387.284-.775.474-1.26.379-.97.758-1.843.758-1.843-1.517-2.134-2.938-4.267-4.075-6.304s-1.895-4.073-2.559-5.819c-.568-1.746-.947-3.298-1.137-4.364-.19-1.067-.284-1.649-.284-1.649l-.285.873c-.189.582-.379 1.358-.568 2.424-.379 2.134-.664 5.238-.284 9.02.379 3.685 1.421 7.953 3.316 12.317 1.801 4.267 4.359 8.535 7.297 12.608 2.843 4.073 5.97 7.856 8.908 11.444 1.421 1.843 2.843 3.588 3.98 5.334 1.137 1.746 2.18 3.589 2.843 5.237 1.516 3.395 1.895 6.595 1.895 8.729 0 1.067-.189 1.94-.189 2.521-.095.582-.19.873-.19.873 2.369-1.454 4.17-4.17 5.117-7.177.948-3.103 1.043-6.498.474-9.795 0 0-.095.291-.379.873-.189.485-.568 1.164-.853 1.746-.568 1.163-1.326 2.327-1.326 2.327Z" fill="#486D33"/><path d="M242.042 143.593a126.598 126.598 0 0 1-5.009 15.34 93.63 93.63 0 0 0-5.342 5.495c-2.084 2.521-3.98 4.946-5.401 7.274-.158.242-.316.468-.468.685-.211.301-.409.584-.574.866-.095.162-.19.334-.285.507-.189.345-.379.689-.568.948-.112.191-.225.368-.331.535-.163.256-.313.491-.427.726l-.569 1.164a28.562 28.562 0 0 1-1.137 2.133c-.569-1.067-.948-2.133-1.327-3.297a35.194 35.194 0 0 0-.115-.346c-.148-.438-.283-.84-.359-1.303a44.53 44.53 0 0 0-.142-.824c-.047-.267-.095-.534-.142-.825a19.608 19.608 0 0 1-.284-3.394c0-1.067.094-2.231.284-3.298 0 0 .569 1.067 1.137 2.231.758 1.261 1.327 2.328 1.327 2.328s-.474-1.843-.853-3.88c-.19-.969-.379-1.939-.474-2.715-.095-.776-.189-1.261-.189-1.261 1.042-3.2 2.748-6.013 4.927-8.632 0 0 .379 1.067.664 2.231l.758 2.134s-.095-1.455-.095-2.91v-2.909c.569-.582 1.137-1.164 1.801-1.746.373-.328.746-.624 1.103-.908.277-.22.543-.432.792-.644 1.145-.92 2.36-1.624 3.525-2.299l.55-.319.758 4.267s.095-1.261.284-2.522c.095-1.26.284-2.521.284-2.521.233-.104.463-.208.691-.312 1.263-.571 2.479-1.12 3.763-1.531.49-.188.979-.335 1.443-.468Z" fill="#56873D"/><path d="M236.854 159.38a126.181 126.181 0 0 1-9.495 18.844 6.213 6.213 0 0 1-.311.072c-.207.043-.415.104-.63.167-.276.081-.566.167-.886.221-1.043.291-2.18.485-3.412.679 0 0 .474-.776 1.137-2.133l.569-1.164c.115-.235.264-.47.427-.727.107-.167.219-.343.331-.534.189-.259.379-.604.569-.949.094-.172.189-.344.284-.506.165-.282.363-.565.574-.866.152-.217.31-.443.468-.686 1.422-2.327 3.317-4.752 5.402-7.273a93.9 93.9 0 0 1 4.973-5.145Z" fill="#486D33"/><path d="m212.644 165.979-1.137-1.163-2.464-2.522c-.852-.97-1.8-1.94-2.463-2.716-.664-.775-1.043-1.26-1.043-1.26-.853-2.425-1.611-4.947-2.085-7.468-.473-2.522-.853-5.14-1.042-7.759 0 0 1.042.776 2.085 1.649.474.388 1.042.776 1.421 1.067.379.291.664.485.664.485s-.285-.388-.664-.97c-.379-.582-.947-1.358-1.516-2.134-.569-.776-1.042-1.552-1.421-2.133-.38-.582-.664-.97-.664-.97-.095-5.237.379-10.378 1.232-15.227 0 0 .853.873 1.801 1.746.947.873 1.8 1.746 1.8 1.746s-.758-1.455-1.611-2.813l-1.516-2.909a100.822 100.822 0 0 1 3.885-13.675l2.748 2.909s-.568-1.067-1.042-2.23a27.317 27.317 0 0 1-1.042-2.231c1.326-3.588 2.653-6.789 4.074-9.795a42.637 42.637 0 0 1 2.18-4.17c.758-1.262 1.516-2.425 2.18-3.492 1.421-2.037 2.842-3.395 3.79-4.267a7.401 7.401 0 0 1 1.137-.97 2.75 2.75 0 0 0 .379-.291l-.568.873c-.19.29-.379.678-.569 1.163-.189.485-.474.97-.758 1.552-1.042 2.328-2.085 5.916-2.843 10.28-.379 2.231-.758 4.559-1.042 7.08-.379 2.522-.664 5.14-1.043 7.953-.663 5.528-1.232 11.444-1.421 17.36-.284 5.916-.19 11.832.284 17.36.379 5.528 1.232 10.669 2.18 15.033.947 4.364 1.99 7.856 2.843 10.377.189.582.379 1.164.568 1.649.19.485.285.873.474 1.164.284.679.379.97.379.97-5.307-3.007-9.761-7.953-12.793-13.772l2.464 1.358a98.404 98.404 0 0 1 2.179 1.163Z" fill="#94C93D"/><path d="M220.605 163.943s.189-.582.568-1.455c.379-.873.853-1.94 1.327-3.006.474-1.067 1.042-2.134 1.421-2.91l.664-1.358c.379-4.267.473-8.631.568-12.996l-1.895 1.552c-.474.388-.948.776-1.327 1.067-.379.291-.568.485-.568.485s.189-.388.568-.873c.379-.582.853-1.261 1.327-1.94s.948-1.454 1.327-1.939c.379-.485.568-.873.568-.873 0-4.462-.189-8.923-.474-13.384 0 0-.947.679-1.99 1.358-.947.679-1.99 1.357-1.99 1.357s.948-1.163 1.896-2.424l1.895-2.328c-.284-4.558-.569-9.019-1.043-13.287l-3.316 1.94s.758-.873 1.611-1.746c.758-.872 1.611-1.745 1.611-1.745-.379-3.686-.758-7.177-1.138-10.087-.379-3.006-.663-5.528-.663-7.758-.095-2.231.095-3.977.19-5.238.094-.678.189-1.163.189-1.454.095-.291.095-.485.095-.485l-.569.873a6.522 6.522 0 0 0-.568 1.163c-.19.485-.474.97-.758 1.552-1.043 2.328-2.085 5.916-2.843 10.28-.379 2.231-.758 4.559-1.043 7.08-.379 2.522-.663 5.14-1.042 7.953-.663 5.528-1.232 11.444-1.422 17.36-.284 5.916-.189 11.832.285 17.36.379 5.528 1.232 10.669 2.179 15.033.948 4.364 1.99 7.856 2.843 10.377.19.582.379 1.164.569 1.649.189.485.284.873.474 1.164.284.679.379.97.379.97 1.895-5.916 2.937-11.638 3.696-17.264 0 0-.853.97-1.801 2.037-.948.873-1.8 1.94-1.8 1.94Z" fill="#70B744"/><path d="M211.507 179.654s-.473-.097-1.137-.194a60.945 60.945 0 0 0-2.464-.291c-.853-.097-1.8-.097-2.464 0h-1.137a54.308 54.308 0 0 1-6.444-3.879s.948-.582 1.896-1.067c.473-.291.947-.485 1.326-.679l.569-.291s-1.327.194-2.559.485c-.663.194-1.232.291-1.705.388a6.877 6.877 0 0 0-.759.194c-2.084-1.552-4.169-3.2-6.349-4.849 0 0 .853-.679 1.611-1.358.853-.679 1.706-1.261 1.706-1.261s-1.137.388-2.18.873c-.568.194-1.042.485-1.516.582-.379.194-.663.291-.663.291-2.18-1.746-4.454-3.685-6.634-5.431 0 0 .664-.582 1.232-1.164.664-.582 1.232-1.164 1.232-1.164s-.853.388-1.706.873c-.852.388-1.611.873-1.611.873-3.79-3.2-7.296-6.207-9.76-8.438a150.214 150.214 0 0 1-3.886-3.782s.948.291 2.654.776c1.706.485 4.075 1.164 6.918 2.037 5.685 1.745 13.361 4.364 20.279 8.437 3.412 2.037 6.728 4.461 9.477 6.983 2.748 2.619 5.022 5.334 6.633 7.953 1.611 2.618 2.464 5.043 2.843 6.789.189.872.284 1.551.379 2.036.095.485.095.776.095.776-2.085-1.552-3.98-2.521-5.781-3.297-1.8-.776-3.411-1.455-5.022-2.231 0 0 1.137-.291 2.274-.485a16.053 16.053 0 0 1 2.653-.485Z" fill="#56873D"/><path d="M218.615 175.484s.094-.485.284-1.358c.095-.776.284-1.94.379-3.006.095-1.164.095-2.231.095-3.104v-1.455c-1.706-3.685-4.265-6.982-7.202-9.601 0 0-.095 1.164-.19 2.425-.095.581-.19 1.163-.19 1.648-.094.485-.094.776-.094.776s-.19-1.552-.569-3.103c-.189-.776-.379-1.552-.474-2.134-.189-.582-.284-.97-.284-.97-3.127-2.424-6.633-4.17-10.14-5.334 0 0 .095 1.164.19 2.231.095 1.163.095 2.23.095 2.23l-.948-2.521c-.284-.679-.474-1.261-.663-1.746-.19-.485-.285-.776-.285-.776-3.601-1.067-7.012-1.552-10.234-1.746 0 0 .189.873.284 1.746.095.873.284 1.746.284 1.746s-.379-.873-.852-1.843c-.474-.873-.853-1.746-.853-1.746-5.497-.194-10.14.582-13.362 1.164-3.317.679-5.307 1.261-5.307 1.261s.948.291 2.654.776c1.705.485 4.074 1.164 6.917 2.037 5.686 1.745 13.362 4.364 20.28 8.437 3.411 2.037 6.728 4.461 9.476 6.983 2.748 2.619 5.023 5.334 6.634 7.953 1.611 2.618 2.464 5.043 2.843 6.789.189.872.284 1.551.379 2.036.094.485.094.776.094.776.853-.873 1.706-1.939 2.275-3.2.568-1.164.947-2.522 1.232-3.783.473-2.715.284-5.528-.379-8.146 0 0-.474 1.26-1.043 2.424l-1.326 2.134Z" fill="#669A41"/><path opacity=".9" d="m222.552 157.547-1.07-.003c-.074-.015-.16-.066-.152-.148.007-.081.046-.173.151-.168l1.071.003c.074.015.159.066.152.148-.008.081-.059.137-.152.168Zm.654-.215c-.008.082-.047.173-.152.168-.074-.015-.16-.066-.152-.147.008-.082.046-.173.152-.168.105.004.159.066.152.147Z" fill="#fff"/><g opacity=".9" filter="url(#Group__b)"><path d="m226.709 170.15-.248-11.952c.011-.596-.414-1.049-.959-1.028l-.892.017.016.153c.024.387-.279.724-.625.719l-3.472.036c-.346-.004-.662-.335-.655-.732l-.004-.118-.965.002c-.545.021-.949.47-.929 1.056l.246 11.847h8.487Z" fill="#fff"/></g><path d="M234.005 165.911a125.76 125.76 0 0 1-2.238 4.523l-5.851.016c-.537.003-.94-.393-.927-.899l.092-2.715c.013-.506.455-.902.992-.905 2.776-.016 5.049-.018 6.468-.019.676-.001 1.158-.001 1.409-.003l.032.002h.023Z" fill="#557B83"/><path d="M221.02 163.734s-.368-9.315 9.685-7.58m-16.15 7.58s.357-14.923 16.673-13.049" stroke="#1C658C" stroke-width=".7"/><path d="M208.094 163.734s1.463-19.372 22.864-17.894" stroke="#1C658C" stroke-width=".7"/><path d="M230.709 162.977c0 1.254-1.085 2.272-2.423 2.272s-2.423-1.018-2.423-2.272c0-1.255 1.085-2.272 2.423-2.272s2.423 1.017 2.423 2.272Z" fill="#1C658C"/><path d="M231.915 170.15c-9.875 19.11-24.426 35.299-42.093 46.972l-4.849-46.972h46.942Z" fill="#7D5426"/><path d="M231.915 170.15a126.677 126.677 0 0 1-4.127 7.37h-44.994l-.569-7.37h49.69Z" fill="#956235"/><defs><filter id="Group__a" x="142.593" y="77.864" width="41.748" height="62.405" filterUnits="userSpaceOnUse" color-interpolation-filters="sRGB"><feFlood flood-opacity="0" result="BackgroundImageFix"/><feBlend in="SourceGraphic" in2="BackgroundImageFix" result="shape"/><feColorMatrix in="SourceAlpha" values="0 0 0 0 0 0 0 0 0 0 0 0 0 0 0 0 0 0 127 0" result="hardAlpha"/><feOffset dy="4"/><feGaussianBlur stdDeviation="13"/><feComposite in2="hardAlpha" operator="arithmetic" k2="-1" k3="1"/><feColorMatrix values="0 0 0 0 0.176471 0 0 0 0 0.854902 0 0 0 0 0.576471 0 0 0 1 0"/><feBlend in2="shape" result="effect1_innerShadow_1_197"/></filter><filter id="Group__b" x="217.976" y="157.169" width="8.733" height="16.98" filterUnits="userSpaceOnUse" color-interpolation-filters="sRGB"><feFlood flood-opacity="0" result="BackgroundImageFix"/><feBlend in="SourceGraphic" in2="BackgroundImageFix" result="shape"/><feColorMatrix in="SourceAlpha" values="0 0 0 0 0 0 0 0 0 0 0 0 0 0 0 0 0 0 127 0" result="hardAlpha"/><feOffset dy="4"/><feGaussianBlur stdDeviation="13"/><feComposite in2="hardAlpha" operator="arithmetic" k2="-1" k3="1"/><feColorMatrix values="0 0 0 0 0.176471 0 0 0 0 0.854902 0 0 0 0 0.576471 0 0 0 1 0"/><feBlend in2="shape" result="effect1_innerShadow_1_197"/></filter></defs></svg>