<svg width="245" height="231" fill="none" xmlns="http://www.w3.org/2000/svg"><path d="M0 102.638c0 70.416 54.801 127.5 122.401 127.5 67.599 0 122.4-57.084 122.4-127.5 0-70.417-71.86-30.21-139.459-30.21-67.6 0-105.341-40.207-105.341 30.21Z" fill="#2DDA93" fill-opacity=".2"/><path d="M60.173 143.017c3.092-24.754-3.33-50.533-17.65-70.697L41 73.492c14.035 19.773 20.362 45.016 17.317 69.281l1.856.244Z" fill="#456C0A"/><path d="m58.792 144.189 1.903-.049c-.619-22.752-1.237-46.236 5.328-68.451.856-2.978 1.95-4.492 3.425-4.785L69.115 69c-2.95.586-4.186 3.76-4.9 6.103-6.66 22.508-6.042 46.187-5.423 69.086Zm-2.902-2.637c2.046-13.28-1.807-27.39-10.228-37.692-.951-1.171-2.093-2.392-3.52-3.027l-.761 1.758c1.046.488 1.902 1.367 2.854 2.539 8.088 9.862 11.798 23.338 9.8 36.129l1.856.293Z" fill="#456C0A"/><path d="M59.98 146.093h1.904c-.095-19.969 3.33-35.69 10.418-47.994 1.237-2.197 2.855-4.638 5.09-6.396 2.237-1.709 4.901-2.392 7.137-1.758l.523-1.904c-2.759-.78-6.042 0-8.753 2.05-2.522 1.905-4.234 4.59-5.567 6.934-7.373 12.743-10.846 28.757-10.751 49.068Z" fill="#456C0A"/><path d="M57.982 144.677c.237-12.987.57-29.148 8.373-41.403l-1.57-1.074c-8.088 12.694-8.42 29.197-8.706 42.428l1.903.049Z" fill="#456C0A"/><path d="M32.552 110.313C35.026 96.692 48.49 93.127 48.49 93.127c3.71-1.855 8.373-2.93 11.798-.585 2.046 1.415 3.235 3.808 4.282 6.102 1.046 2.295 1.998 4.688 2.045 7.226.048 2.539-.999 5.225-3.187 6.396-1.808-4.931-5.804-8.934-10.61-10.692 3.474 2.881 6.09 6.884 7.375 11.278.238.83.428 1.709.19 2.539-.19.684-.666 1.221-1.142 1.709-2.854 2.978-6.375 5.224-10.228 6.64-1-2.49-2.522-4.785-4.472-6.64 1.047 2.246 1.57 4.736 1.427 7.226-.048.537-.095 1.074-.285 1.562-.286.635-.81 1.123-1.38 1.514-3.425 2.441-7.945 2.099-12.084 2.246a43.508 43.508 0 0 0-20.171 5.956c-.048 0 17.983-11.669 20.504-25.291Z" fill="#548611"/><path d="M14.188 121.445c.285-1.318.856-2.538 1.475-3.71 2.14-4.248 4.947-8.154 8.325-11.425a109.18 109.18 0 0 0-3.235 1.806C23.845 98.938 32.076 91.76 41.4 90.149c2.807-.488 6.565.147 7.136 3.027 0 0-13.463 3.564-15.985 17.186C30.03 123.984 12 135.653 12 135.653a28.046 28.046 0 0 0 1.713-8.349c.143-2.002.048-3.954.476-5.859Zm80.158 10.518c.143-11.815-10.561-17.137-10.561-17.137-2.807-2.197-6.518-3.906-9.753-2.49-1.95.83-3.33 2.636-4.567 4.394s-2.426 3.564-2.855 5.712c-.428 2.1 0 4.541 1.618 5.908 2.284-3.808 6.28-6.493 10.61-7.079a19.186 19.186 0 0 0-7.993 8.153c-.333.635-.666 1.367-.571 2.1.047.586.38 1.123.713 1.611a22.916 22.916 0 0 0 7.47 7.275 16.247 16.247 0 0 1 4.804-4.785 12.747 12.747 0 0 0-2.378 5.81c-.048.439-.095.928 0 1.367.142.586.523 1.074.904 1.514 2.473 2.636 6.327 3.124 9.752 3.954 5.852 1.465 11.371 4.346 15.938 8.447-.048-.049-13.226-12.938-13.13-24.754Z" fill="#456C0A"/><path d="M107.906 144.413c-.048-1.123-.286-2.294-.619-3.369-1.094-3.906-2.807-7.665-5.09-10.985l2.426 2.051c-1.094-8.203-6.803-15.624-14.32-18.602-2.283-.879-5.518-.977-6.47 1.318 0 0 10.704 5.322 10.562 17.137-.143 11.816 13.035 24.705 13.035 24.705-.381-2.392-.428-4.882-.095-7.275.238-1.66.618-3.32.571-4.98Z" fill="#548611"/><path d="M82.948 88.345c1.047-11.668-9.087-17.772-9.087-17.772-2.569-2.392-6.137-4.345-9.42-3.27-1.998.683-3.52 2.294-4.852 3.954-1.332 1.611-2.664 3.32-3.283 5.37-.618 2.051-.333 4.492 1.142 5.957 2.57-3.564 6.708-5.859 11.037-6.152a18.97 18.97 0 0 0-8.515 7.422c-.381.634-.762 1.269-.714 2.001 0 .586.285 1.123.57 1.66a23.599 23.599 0 0 0 6.804 7.812c1.38-1.806 3.14-3.271 5.138-4.345-1.38 1.562-2.331 3.466-2.807 5.517-.095.44-.19.879-.095 1.318.095.586.428 1.123.761 1.563 2.236 2.783 5.994 3.564 9.325 4.687a36.932 36.932 0 0 1 15.033 9.618c-.048.049-12.084-13.72-11.037-25.34Z" fill="#66990C"/><path d="M95.316 101.723c.048-1.123-.142-2.246-.333-3.369a37.003 37.003 0 0 0-4.186-11.278c.761.732 1.475 1.465 2.236 2.197-.428-8.154-5.471-15.917-12.702-19.48-2.189-1.075-5.376-1.417-6.47.78 0 0 10.133 6.103 9.086 17.772-1.047 11.669 10.942 25.438 10.942 25.438-.19-2.393-.047-4.834.476-7.178.38-1.66.904-3.222.951-4.882Z" fill="#548611"/><path d="M80.378 118.734c3.568-11.132-4.995-19.383-4.995-19.383-1.998-2.93-5.043-5.664-8.468-5.322-2.094.195-3.901 1.465-5.614 2.734-1.665 1.27-3.33 2.637-4.377 4.492-1.046 1.855-1.332 4.296-.19 6.054 3.283-2.881 7.802-4.199 12.084-3.466-3.711.683-7.231 2.538-9.943 5.273-.523.488-1 1.074-1.142 1.806-.095.586 0 1.172.19 1.758.952 3.369 2.617 6.542 4.948 9.13a15.812 15.812 0 0 1 5.947-3.076c-1.665 1.221-3.045 2.881-3.901 4.736-.19.39-.38.83-.38 1.269-.049.586.142 1.172.427 1.709 1.57 3.222 5.043 4.834 8.04 6.689 5.138 3.125 9.468 7.568 12.56 12.792 0 .097-8.706-16.063-5.186-27.195Z" fill="#93C91C"/><path d="M83.177 129.255c.286-1.074.38-2.246.38-3.369a38.518 38.518 0 0 0-1.617-11.913c.571.879 1.142 1.758 1.665 2.685 1.38-8.104-1.903-16.795-8.135-21.921-1.903-1.514-4.948-2.637-6.47-.733 0 0 8.564 8.251 4.995 19.383-3.568 11.132 5.186 27.293 5.186 27.293.333-2.393.999-4.736 2.046-6.884.666-1.514 1.522-2.93 1.95-4.541Z" fill="#71B70B"/><path d="M31.131 87.52c.666-10.4 10.419-14.354 10.419-14.354 2.616-1.758 5.994-2.979 8.753-1.514 1.666.879 2.76 2.539 3.759 4.199.951 1.611 1.903 3.32 2.14 5.224.238 1.904-.285 4.004-1.807 5.078-1.76-3.516-5.138-6.152-8.897-6.982 2.855 1.855 5.186 4.59 6.518 7.763.238.586.476 1.27.38 1.904-.095.537-.38.977-.713 1.367-1.855 2.49-4.33 4.492-7.041 5.908a13.304 13.304 0 0 0-3.949-4.54c1 1.562 1.57 3.417 1.713 5.272.048.39.048.83-.095 1.172-.143.488-.523.928-.904 1.27-2.331 2.148-5.756 2.294-8.849 2.782-5.28.879-10.323 3.027-14.557 6.299 0-.049 12.464-10.449 13.13-20.848Z" fill="#93C91C"/><path d="M18.381 97.529c.096-1.025.428-2.002.761-2.93 1.238-3.368 2.998-6.542 5.234-9.325a88.38 88.38 0 0 0-2.236 1.611c1.474-7.177 7.04-13.28 13.844-15.33 2.045-.635 4.947-.489 5.566 1.61 0 0-9.753 3.907-10.419 14.355-.666 10.4-13.13 20.848-13.13 20.848.523-2.1.713-4.248.57-6.396-.095-1.514-.332-2.978-.19-4.443Z" fill="#71B70B"/><g opacity=".9" filter="url(#Group__a)"><path d="m48.243 125.789.387 18.679c.02.586-.415 1.045-.928 1.056l-6.597.077c-.514.011-.939-.441-.96-1.027l-.387-18.679c-.02-.586.384-1.035.929-1.056l.965-.002.004.117c-.007.398.309.728.655.733l3.472-.036c.346.004.65-.333.625-.72l-.016-.153.892-.017c.544-.021.97.432.959 1.028Z" fill="#fff"/></g><path opacity=".9" d="m44.334 125.138-1.07-.003c-.074-.015-.16-.066-.153-.147.008-.082.047-.174.152-.169l1.07.004c.074.015.16.066.152.147-.007.082-.058.138-.151.168Zm.653-.215c-.007.082-.046.174-.151.169-.074-.015-.16-.066-.152-.148.008-.081.046-.173.151-.168.105.005.16.066.152.147Z" fill="#fff"/><path d="M31.467 139.083c-.038-.956-.057-1.902-.095-2.859-.012-.143-.01-.342.1-.497.186-.265.593-.266.747-.273.705.006 3.424-.002 7.138.022a.914.914 0 0 1 .898.905l.083 2.715c.012.506-.353.902-.84.899l-7.137-.021c-.481.011-.868-.39-.894-.891Z" fill="#557B83"/><path d="M43.935 133.279s.334-9.315-8.776-7.58m14.634 7.58s-.323-14.923-15.107-13.049" stroke="#1C658C" stroke-width=".7"/><path d="M55.648 133.279s-1.326-19.372-20.718-17.894" stroke="#1C658C" stroke-width=".7"/><path d="M35.156 132.522c0 1.254.983 2.271 2.196 2.271s2.196-1.017 2.196-2.271c0-1.255-.983-2.272-2.196-2.272s-2.196 1.017-2.196 2.272Z" fill="#1C658C"/><path d="M29.807 140h62.655l-5.423 53.218H35.183L29.807 140Z" fill="#7C5327"/><path d="M27.571 147.421h67.08l.618-7.421H27l.571 7.421Z" fill="#936134"/><path d="M159.675 149.074c-4.668 3.947-9.362 7.755-14.03 11.702-.676.627-1.687 1.387-2.907 1.395-2.081.022-3.71-2.195-4.362-3.01-2.795-3.873-13.707-18.695-28.441-39.07-1.927-2.666-1.534-6.405.968-8.445l13.354-11.074c2.501-2.04 5.961-1.596 7.888 1.07l28.441 39.07c1.984 2.584 1.508 6.265-.911 8.362Z" fill="#000"/><g opacity=".9" filter="url(#Group__b)"><path d="m130.413 102.391 29.69 40.782c.95 1.263.643 3.117-.538 4.124l-15.268 12.791c-1.181 1.008-2.87.814-3.821-.449l-29.689-40.783c-.951-1.263-.701-3.034.538-4.124l2.248-1.85.19.253c.596.897 1.842 1.028 2.657.375l8.042-6.722c.815-.652 1.003-1.981.35-2.796l-.273-.309 2.053-1.742c1.238-1.09 2.927-.896 3.821.45Z" fill="#2DDA93"/></g><path opacity=".9" d="m120.303 108.414-2.502 2.04c-.196.107-.474.158-.582-.037-.108-.196-.159-.475.094-.665l2.502-2.04c.195-.108.474-.159.581.037.108.196.077.418-.093.665Zm1.192-1.729c.108.196.159.474-.094.664-.195.108-.474.159-.581-.037-.108-.196-.159-.474.093-.664.253-.19.475-.159.582.037Z" fill="#fff"/><path d="M160.418 23.275c-.104.472-.259.986-.369 1.505-.674 2.872-1.401 6.563-1.471 7.136-.035.675-1.835 5.147-1.74 7.053.095 1.905.999 3.675.379 4.952-.621 1.278-4.334 8.459-4.891 9.21-.558.752-1.455 3.159 1.251 3.903 2.66.738 2.127.134 2.493.959 0 0-.539.22-1.153.673-.769.579-1.585 1.54-1.569 2.95.06 2.58 2.141 3.096 1.91 3.842-.23.747-.432 2.42-.158 3.232.314.866-.136 3.04-.544 4.103-.408 1.063-5.352 15.703 3.834 16.425 9.18.77 14.887-5.566 16.157-2.583.068.203.183.412.292.67 1.217 3.023 2.565 7.666 1.56 9.427-1.069 1.898-2.435 2.787-2.435 2.787l19.456.568 16.781-16.19s-2.634-7.87-.991-15.663c.214-.992.473-1.977.818-2.902 0 0 8.801-23.016 7.473-34.355-1.329-11.34-9.94-22.568-24.457-25.06-14.516-2.492-36.272 6.297-38.419 8.636-2.136 2.243 6.519 5.808 5.793 8.722Z" fill="#F7B492"/><path d="M160.418 23.274c-.104.472-.259.985-.369 1.505 3.39-.67 6.543-.159 6.543-.159s3.647.674 5.221 2.677c1.569 2.05.133 8.9 2.643 10.492 2.51 1.593.795 1.513 1.814 7.715.973 6.195-4.117 9.36-5.719 11.043-1.601 1.682-6.286 6.114-7.015 6.358-.728.244-3.515.557-4.637-1.726-.715-1.405-2.629-2.142-3.988-2.466-.769.578-1.584 1.539-1.569 2.949.06 2.58 2.141 3.097 1.911 3.843-.23.746-.433 2.419-.159 3.232.315.866-.135 3.04-.544 4.102-.408 1.063-5.351 15.704 3.834 16.426 9.18.77 14.888-5.566 16.157-2.584.069.204.183.413.292.67 8.167-5.867 10.365-17.082 11.009-18.94.708-1.994-2.32-11.614-1.943-14.72.376-3.106 2.612-7.326 6.747-7.608 4.135-.28 6.499 3.282 8.218 9.09.959 3.233 6.068 8.76 10.358 12.964.213-.991.473-1.977.818-2.902 0 0 8.801-23.016 7.472-34.355-1.328-11.34-9.939-22.568-24.456-25.06-14.517-2.491-36.272 6.297-38.419 8.636-2.148 2.339 6.507 5.904 5.781 8.818Z" fill="#000"/><path d="m175.543 37.147-1.023-1.136 1.542.43c-.087.264-.175.616-.519.706Z" fill="#2A2A3D"/><path d="M180.247 38.738c.084.263.169.438-.004.703-.173.265-.345.354-.603.356h-.086c-.001.176-.174.44-.347.618-.086.088-.258.09-.344.09l-.171.001-3.156-3.318c.258-.09.431-.355.519-.707l4.542 1.2.171.087c-.001.175.255.437.167.702-.087.264-.345.354-.517.443l-.171-.175Z" fill="#F8CEA0"/><path d="m205.996 52.626 1.373.784c-.002.353-.177.795-.265 1.149l-1.373-.785c.088-.265.262-.619.264-.972l.001-.176Z" fill="#D72427"/><path d="m205.742 53.781 1.371.783-.261.53c-.087.177-.26.354-.347.53l-1.37-.782c.172-.178.259-.354.433-.62a.692.692 0 0 1 .174-.441Z" fill="#D72427"/><path d="m205.146 54.758 1.368.781c-.259.265-.518.53-.862.708l-1.368-.78c.086-.09.172-.178.258-.178a3.89 3.89 0 0 0 .604-.531Z" fill="#D72427"/><path d="m205.315 52.176.688.438-.001.177c-.088.354-.176.62-.265.974l-.602-.35c.087-.177.088-.354.176-.531l.004-.708Zm-.766 2.221.599.348-.518.531c-.087.088-.173.177-.259.178l-.514-.26c.173-.178.433-.531.692-.797Z" fill="#EDECF1"/><path d="m205.062 53.331.6.349c-.087.177-.088.265-.175.442a2.728 2.728 0 0 1-.434.62l-.6-.349c.086-.088.174-.265.26-.354.173-.178.261-.443.349-.708Z" fill="#EDECF1"/><path d="M179.535 39.912c.086 0 .086 0 0 0l25.038 14.306c-.173.264-.433.616-.777.794l-24.951-14.306c.085-.001.257-.002.343-.09.258-.178.432-.53.347-.704Zm1.108-2.045 24.699 14.138c-.001.263-.003.526-.089.703-.087.176-.088.351-.175.527L180.293 39.01c.172-.089.43-.178.517-.442.087-.264-.083-.526-.167-.701Z" fill="#F4D331"/><path d="m180.302 38.932 24.784 14.224a2.72 2.72 0 0 1-.347.704c-.087.088-.173.264-.26.352l-24.868-14.31c.257-.002.515-.091.602-.355.173-.264.088-.44.004-.702l.085.087Z" fill="#2A2A3D"/><path d="M198.834 54.02c.716 3.563-3.471 7.994-5.867 10.633 1.168-.347 5.523-5.287 7.449-7.669-.217-.33-.907-2.233-1.582-2.964Zm-10.923-.15c1.067-1.663 4.477-3.258 6.049-3.847-6.923-.01-7.755 4.944-7.306 7.422-.026-.499.189-1.913 1.257-3.576Z" fill="#000" fill-opacity=".4"/><path d="M187.68 47c2.4-2 8.545-.7 10.08 4.5L187.68 47Z" fill="#F7B492"/><path d="M159.36 39.5c0 .828-.644 1.5-1.44 1.5-.795 0-.96-.672-.96-1.5s-.315-1.5.48-1.5c.796 0 1.92.672 1.92 1.5Z" fill="#000"/><path d="M158.4 33c1.44-.333 5.089-.5 8.16 1.5" stroke="#000" stroke-width="1.5"/><path d="M127.486 230.03a72.043 72.043 0 0 1 5.498-6.792c1.141-1.241 2.072-2.156 2.54-2.617.127-.125.22-.216.274-.272 3.753-3.677 9.298-12.43 17.657-33.964l-1.621-4.64-27.551-18.645-1.023-.701c-7.432 21.919-14.863 43.837-22.294 65.79a118.322 118.322 0 0 0 21.435 1.949c1.703 0 3.399-.037 5.085-.108Z" fill="#F7B492"/><path d="M242.987 124.488c-1.074-15.62-3.706-27.178-7.479-33.081-5.203-8.141-11.856-10.855-11.856-10.855-5.544-2.276-10.918-1.576-13.903-.963-8.786.175-15.951 1.05-21.068 1.926-10.577 1.663-19.96 3.239-30.622 8.841-5.885 3.064-10.747 5.69-15.438 10.942-5.782 6.585-7.251 13.05-9.995 25.131-.576 2.534-1.207 5.315-1.947 8.396-1.876 7.703-4.691 18.821-8.956 32.301 3.838 3.239 9.041 7.091 15.695 10.417a81.096 81.096 0 0 0 14.756 5.603c.17.875.32 1.772.469 2.669.149.898.298 1.795.469 2.67 2.02 12.973 2.596 25.272 2.247 36.839 44.981-13.069 79.517-52.229 87.628-100.836Z" fill="#48A2F5"/><path opacity=".2" d="M165.906 133.425s-8.359 46.832-9.212 48.408c-.171.525-.341.962-.512 1.488-.426.087-.938.087-1.45.087-.938 0-1.791-.087-2.559-.175.683 3.414 1.536 7.966 1.962 12.255.682 6.478.768 9.104.768 9.104 0 .876 0 1.138.085 1.138.426-.087 2.9-15.494 10.918-72.305Z" fill="#000"/><defs><filter id="Group__a" x="39.758" y="124.761" width="8.873" height="24.841" filterUnits="userSpaceOnUse" color-interpolation-filters="sRGB"><feFlood flood-opacity="0" result="BackgroundImageFix"/><feBlend in="SourceGraphic" in2="BackgroundImageFix" result="shape"/><feColorMatrix in="SourceAlpha" values="0 0 0 0 0 0 0 0 0 0 0 0 0 0 0 0 0 0 127 0" result="hardAlpha"/><feOffset dy="4"/><feGaussianBlur stdDeviation="13"/><feComposite in2="hardAlpha" operator="arithmetic" k2="-1" k3="1"/><feColorMatrix values="0 0 0 0 0.176471 0 0 0 0 0.854902 0 0 0 0 0.576471 0 0 0 1 0"/><feBlend in2="shape" result="effect1_innerShadow_1_7"/></filter><filter id="Group__b" x="110.208" y="101.236" width="50.456" height="63.496" filterUnits="userSpaceOnUse" color-interpolation-filters="sRGB"><feFlood flood-opacity="0" result="BackgroundImageFix"/><feBlend in="SourceGraphic" in2="BackgroundImageFix" result="shape"/><feColorMatrix in="SourceAlpha" values="0 0 0 0 0 0 0 0 0 0 0 0 0 0 0 0 0 0 127 0" result="hardAlpha"/><feOffset dy="4"/><feGaussianBlur stdDeviation="13"/><feComposite in2="hardAlpha" operator="arithmetic" k2="-1" k3="1"/><feColorMatrix values="0 0 0 0 0.176471 0 0 0 0 0.854902 0 0 0 0 0.576471 0 0 0 1 0"/><feBlend in2="shape" result="effect1_innerShadow_1_7"/></filter></defs></svg>