<svg width="342" height="220" viewBox="0 0 342 220" fill="none" xmlns="http://www.w3.org/2000/svg">
<g clip-path="url(#clip0_36_193)">
<path d="M285 98.6377C285 169.054 227.916 226.138 157.5 226.138C87.0837 226.138 30 169.054 30 98.6377C30 28.2214 104.854 68.4286 175.27 68.4286C245.686 68.4286 285 28.2214 285 98.6377Z" fill="#2DDA93" fill-opacity="0.2"/>
<mask id="mask0_36_193" style="mask-type:alpha" maskUnits="userSpaceOnUse" x="30" y="-29" width="255" height="255">
<circle cx="157.5" cy="98.5" r="127.5" fill="#C4C4C4"/>
</mask>
<g mask="url(#mask0_36_193)">
<path d="M182.128 90.862C182.128 90.862 182.462 84.1465 183.795 81.2588C189.258 76.1491 192.824 67.4 193.924 63.6642C196.39 59.6349 196.39 50.6361 196.323 47.4127C196.256 46.674 196.256 46.271 196.256 46.271C195.923 40.3614 179.13 0.2698 148.608 10.6788C122.885 19.4762 120.752 37.9438 119.086 54.5983C118.887 56.2771 118.753 57.956 118.553 59.5677C118.353 60.978 118.22 62.3211 118.02 63.6642C115.355 82.1318 93.9629 96.7716 93.9629 96.7716L108.357 129.946C108.357 129.946 149.008 135.856 150.008 135.99C151.007 136.125 149.808 127.327 149.808 127.327C149.808 127.327 145.943 124.574 145.076 122.693C144.876 122.223 144.943 121.418 145.143 120.477C145.743 117.791 147.542 113.896 147.942 113.09C148.008 113.023 148.008 112.956 148.008 112.956C148.008 112.956 154.606 116.515 159.471 116.851C164.335 117.187 166.468 108.591 166.468 108.591C175.464 105.435 171.799 101.741 173.932 100.398C175.998 99.0549 182.128 90.862 182.128 90.862Z" fill="#F7AF8B"/>
<path d="M205.986 229H31.3205C31.3205 229 31.1206 185.954 33.5196 167.62C35.9853 149.287 52.179 115.038 70.172 105.166C87.6985 95.563 87.7651 94.7571 95.3622 95.0929C94.096 95.16 91.7636 95.8987 98.2277 102.278C106.425 110.337 119.619 119.739 119.619 119.739C119.619 119.739 139.745 139.147 150.341 126.723C150.807 125.514 151.274 124.037 151.474 122.156C151.873 118.664 151.074 115.777 150.541 114.165C152.673 115.105 154.539 115.709 155.872 116.045C158.737 116.784 160.204 117.12 161.536 116.448C163.069 115.642 164.269 113.762 164.469 113.426C165.002 112.62 164.935 112.352 165.135 112.217C166.734 110.941 178.53 118.463 185.86 130.887C194.59 145.661 195.39 164.733 195.39 164.733L198.455 183.267L199.988 192.333L200.455 195.154L201.987 204.556L202.054 205.093L203.12 211.674L203.32 212.883L204.053 217.449L205.986 229Z" fill="#48A2F5"/>
<path d="M40.8516 143.78C40.8516 143.78 55.1794 135.52 76.5044 150.832L77.504 153.182C77.504 153.182 59.1778 138.744 39.7188 146.399L40.8516 143.78Z" fill="white"/>
<path d="M32.6545 176.283C37.0528 175.343 42.2508 174.604 48.1818 174.537C61.7765 174.47 72.7056 178.164 79.6362 181.186C79.7029 181.857 79.8361 182.529 79.9028 183.2C76.8373 181.991 73.5053 180.85 69.84 179.91C54.9792 176.149 41.7843 177.425 32.5879 179.372C32.6545 178.365 32.6545 177.358 32.6545 176.283Z" fill="white"/>
<path d="M31.7871 206.57C36.3853 205.63 41.8499 204.891 47.9808 204.824C63.3748 204.757 75.7033 209.122 83.4337 212.681C83.5669 213.622 83.6336 214.562 83.7669 215.502C80.035 213.554 75.6367 211.674 70.572 210.197C54.3783 205.496 40.1172 207.578 31.7871 209.659C31.7871 208.652 31.7871 207.645 31.7871 206.57Z" fill="white"/>
<path d="M76.5039 150.832C76.5039 150.832 112.557 126.454 191.326 145.593L191.992 148.213C191.992 148.213 128.284 128.67 77.5035 153.182L76.5039 150.832Z" fill="white"/>
<path d="M82.3672 180.984C91.6302 178.164 101.893 175.679 113.222 174C148.475 168.762 178.796 173.194 200.188 178.567L200.854 181.186C189.925 178.231 177.064 175.679 162.669 174.47C129.482 171.784 101.76 177.492 82.8337 183.2C82.7004 182.529 82.5671 181.723 82.3672 180.984Z" fill="white"/>
<path d="M86.6337 213.622C94.7639 210.062 104.094 206.705 114.756 204.354C151.542 195.96 183.263 203.011 201.722 208.921L202.389 211.54C191.726 208.518 178.864 205.832 164.203 204.824C130.95 202.541 103.694 209.727 86.3672 216.106C86.4338 215.233 86.5005 214.427 86.6337 213.622Z" fill="white"/>
<path d="M263.964 114.703C263.964 114.703 253.968 128.47 252.236 130.149C250.503 131.828 271.228 142.774 271.228 142.774L263.964 114.703Z" fill="#F2F2F3"/>
<path d="M158.605 199.05L214.517 117.39C214.517 117.39 263.231 138.073 269.496 147.475C269.496 147.475 270.828 145.528 275.693 145.796C275.693 145.796 265.297 134.245 269.029 115.711L269.895 116.114C269.962 119.941 270.295 124.374 271.295 129.343C272.561 135.992 274.56 141.498 276.426 145.796C254.035 174.74 231.577 203.751 209.186 232.695L158.605 199.05Z" fill="#2DDA93"/>
<path d="M215.383 117.792C215.383 117.792 220.714 112.621 221.247 112.42C221.78 112.219 265.363 135.051 267.562 139.081C267.562 139.081 258.033 121.822 264.23 114.368L268.962 115.711C268.962 115.711 270.761 135.723 272.894 139.081C275.026 142.438 275.626 145.796 275.626 145.796L268.762 148.549L215.383 117.792Z" fill="white"/>
<path d="M203.255 204.287C199.989 205.63 197.457 206.57 196.991 206.705C196.924 206.705 200.123 205.899 203.388 204.824C217.449 200.392 221.181 198.243 223.114 200.123C224.313 201.265 224.38 203.615 223.58 204.891C222.714 206.234 221.181 205.899 217.583 206.637C214.784 207.175 211.385 208.585 204.521 211.405C203.721 211.741 203.322 211.808 202.922 212.077C201.655 213.017 194.058 216.778 193.059 217.315C194.058 216.845 201.322 213.689 204.721 212.614C204.854 212.547 205.321 212.346 206.054 212.278C206.587 212.211 207.187 212.144 207.653 212.346C208.519 212.748 208.986 214.092 208.786 215.032C208.453 216.509 206.52 217.181 205.587 217.516C202.055 218.86 198.923 221.21 195.325 222.419C191.859 223.628 186.995 225.508 180.864 228.799H156.873C153.341 224.098 150.342 215.972 151.942 203.28C151.942 203.28 162.804 190.117 166.602 187.767C166.602 187.767 163.87 190.05 165.136 191.259C166.403 192.468 182.863 189.916 198.323 183.603C198.79 183.402 199.323 183.2 199.79 182.999C211.652 178.164 214.584 176.015 217.383 177.425C217.649 177.559 219.515 178.499 219.648 180.044C220.115 184.476 206.054 190.117 202.788 191.393C202.722 191.393 202.122 191.662 201.256 191.998C196.391 194.012 190.66 196.631 192.926 198.042C193.859 198.579 197.39 197.034 201.722 194.885C201.722 194.885 209.852 189.916 222.247 186.558C223.514 186.222 225.779 185.618 227.312 186.894C228.312 187.7 228.912 189.177 228.712 190.453C228.245 193.408 223.78 193.542 215.717 197.571C209.919 200.459 209.386 201.735 203.255 204.287Z" fill="#F7AF8B"/>
<path opacity="0.4" d="M78.3691 166.076C78.3691 166.076 88.8317 205.16 86.2327 216.509C86.2327 216.509 121.486 213.42 123.418 215.3C125.351 217.181 91.6973 216.845 83.967 217.919C84.0336 217.919 78.9689 173.194 78.3691 166.076Z" fill="black"/>
<path d="M157.206 229H124.685C123.952 223.426 123.086 216.039 123.486 215.233C124.152 213.89 144.144 208.249 148.876 203.615C152.741 199.855 152.408 217.181 157.206 229Z" fill="#4194E0"/>
<path d="M144.943 121.821C144.943 119.446 146.943 115.105 147.942 112.755L150.608 114.098C153.273 120.007 151.607 126.521 149.608 127.529C148.053 126.298 144.943 124.171 144.943 121.821Z" fill="#F7AF8B"/>
<path d="M150.475 114.098C144.277 107.718 136.547 99.2564 132.615 92.9438C132.615 99.6594 145.277 116.336 151.608 123.835C152.514 118.194 151.23 114.993 150.475 114.098Z" fill="black" fill-opacity="0.2"/>
<path d="M218.943 147.801C220.253 148.54 221.442 148.319 222.044 147.235C222.497 146.42 222.224 145.464 221.426 144.93L221.445 144.896C222.15 145.165 222.965 144.884 223.34 144.21C223.864 143.267 223.471 142.265 222.318 141.615L219.648 140.108L216.225 146.267L218.943 147.801ZM220.398 141.793L221.453 142.388C222.053 142.727 222.241 143.203 221.965 143.698C221.676 144.219 221.116 144.301 220.432 143.914L219.509 143.394L220.398 141.793ZM218.043 146.032L219.037 144.243L220.113 144.85C220.87 145.277 221.112 145.817 220.791 146.394C220.464 146.983 219.889 147.073 219.149 146.655L218.043 146.032ZM228.046 144.707C226.226 143.68 224.406 144.262 223.315 146.225C222.226 148.184 222.685 150.052 224.505 151.079C226.321 152.104 228.146 151.525 229.234 149.565C230.325 147.602 229.862 145.732 228.046 144.707ZM227.449 145.783C228.452 146.349 228.639 147.531 227.92 148.824C227.204 150.113 226.109 150.566 225.105 150C224.098 149.431 223.908 148.253 224.625 146.964C225.343 145.671 226.445 145.216 227.449 145.783ZM234.604 148.407C232.784 147.38 230.963 147.962 229.872 149.925C228.784 151.884 229.243 153.753 231.063 154.78C232.879 155.804 234.703 155.225 235.792 153.266C236.883 151.302 236.419 149.432 234.604 148.407ZM234.006 149.483C235.01 150.049 235.196 151.231 234.478 152.524C233.761 153.813 232.666 154.266 231.663 153.7C230.655 153.131 230.466 151.953 231.182 150.664C231.901 149.371 233.002 148.916 234.006 149.483ZM236.195 157.536L237.241 155.653L238.199 155.286L238.589 158.886L240.125 159.753L239.601 154.955L243.39 153.505L241.961 152.699L238.095 154.207L238.057 154.185L239.618 151.377L238.333 150.652L234.911 156.811L236.195 157.536Z" fill="white"/>
<path d="M178.456 75.6238C179.948 81.5798 181.936 88.4779 181.936 90.4633C181.936 92.4486 175.971 92.2831 172.988 91.9523" stroke="black" stroke-opacity="0.2"/>
<path d="M173.486 101.171C171.994 101.338 168.217 101.271 165.035 99.6682" stroke="#B55F34"/>
<path d="M183.428 68.1096C185.25 67.6087 189.989 68.2098 192.375 70.6143" stroke="black" stroke-width="1.5"/>
<path d="M188.895 74.6217C188.895 75.6236 187.9 76.1245 187.403 77.1264C186.305 77.1264 185.912 76.7302 185.912 75.6236C185.912 74.517 186.802 73.6199 187.9 73.6199C188.895 73.6199 188.895 74.5585 188.895 74.6217Z" fill="black"/>
<path d="M196 44.0704C196 44.0704 187.289 34.406 176.318 35.8154C173.193 36.2181 170.067 37.4932 165.014 41.453C159.694 45.614 151.649 53.1308 144.534 65.8154C144.201 66.0838 143.004 66.8221 141.275 66.6879C139.813 66.5536 138.815 65.8154 138.416 65.4798C144.6 53.1979 142.605 41.9899 138.15 39.8422C133.961 37.8288 125.184 42.3926 119 52.3926C120.662 35.7483 122.79 17.2248 148.457 8.49994C178.978 -1.90275 195.668 38.0973 196 44.0704Z" fill="black"/>
<path d="M126.5 49.0001C128.167 46.1667 132.9 41.6001 138.5 46.0001C136.833 45.0001 132.1 44.2001 126.5 49.0001Z" fill="black" fill-opacity="0.4"/>
<path d="M161.5 58.0001C164.667 57.0001 172.1 56.6001 176.5 63.0001" stroke="black" stroke-width="1.5"/>
<circle cx="168" cy="66" r="2" fill="black"/>
</g>
</g>
<defs>
<clipPath id="clip0_36_193">
<rect width="342" height="220" fill="white"/>
</clipPath>
</defs>
</svg>
