<svg width="116" height="84" viewBox="0 0 116 84" fill="none" xmlns="http://www.w3.org/2000/svg">
<rect y="0.613281" width="116" height="83" rx="4" fill="#2DDA93" fill-opacity="0.5"/>
<path d="M34.326 46.3536C35.6529 46.0651 37.7876 45.9498 40.8453 46.9594C37.1529 48.0555 34.9895 47.8825 33.8356 47.5363C34.6145 48.0844 35.7395 49.4401 34.9318 52.6998C32.6818 50.7959 32.4799 49.2094 32.6818 48.2286C31.9029 49.2094 30.3741 50.5075 27.4318 51.8344C28.9029 49.2671 30.4895 47.9401 31.6722 47.2767C30.4318 47.1613 28.6145 46.5555 26.9414 44.3921C31.0664 44.6228 32.451 45.8055 32.9126 46.5555C32.7683 45.6901 33.0568 43.9305 36.0568 41.219C36.201 43.9017 35.1914 45.4882 34.326 46.3536Z" fill="#486D33"/>
<path d="M36.9222 40.5845C34.4703 43.4691 33.1433 47.2768 33.201 51.0556" stroke="#486D33" stroke-width="3" stroke-miterlimit="10"/>
<path d="M31.5572 41.1035C29.7687 44.5362 28.9033 48.4593 29.0764 52.3535" stroke="#486D33" stroke-width="3" stroke-miterlimit="10"/>
<path d="M20.9707 41.1902C21.1438 41.2479 21.288 41.3344 21.4611 41.4498C23.1053 42.5748 24.2015 44.3921 24.8361 46.296C25.4707 48.1998 25.6726 50.1902 25.8745 52.1806" stroke="#486D33" stroke-width="3" stroke-miterlimit="10"/>
<path d="M23.8555 34.9595C25.5862 40.3825 26.5093 46.0364 26.5382 51.7479" stroke="#486D33" stroke-width="3" stroke-miterlimit="10"/>
<path d="M34.5861 32.0171C34.2111 32.1325 33.9226 32.4498 33.663 32.7382C32.6246 33.9209 31.5861 35.1036 30.8649 36.5171C30.5476 37.1517 30.288 37.844 30.0861 38.5363C28.6726 42.9498 28.1822 47.6229 28.0957 52.2382" stroke="#486D33" stroke-width="3" stroke-miterlimit="10"/>
<path d="M32.5675 42.3441C34.1828 42.7479 36.779 42.921 40.529 41.7671C36.0578 40.3248 33.404 40.4979 31.9905 40.9017C32.9713 40.2671 34.3559 38.6229 33.4617 34.6133C30.6925 36.8921 30.404 38.796 30.6059 40.0075C29.6828 38.796 27.8655 37.1806 24.3175 35.4787C26.0771 38.6517 27.9521 40.296 29.3655 41.1614C27.8655 41.2767 25.6155 41.9691 23.5098 44.5652C28.529 44.3633 30.2598 42.9787 30.8655 42.0844C30.6636 43.1517 30.9809 45.2864 34.5578 48.6902C34.7886 45.3729 33.6059 43.4114 32.5675 42.3441Z" fill="#56873D"/>
<path d="M19.9904 41.8249C18.4038 42.2865 15.7788 42.5461 12 41.5365C16.4135 39.9499 19.0673 40.0365 20.5096 40.3826C19.5 39.7769 18.0865 38.1903 18.8365 34.1519C21.6923 36.3153 22.0385 38.248 21.8654 39.4307C22.7596 38.1903 24.5192 36.5172 28.0096 34.6999C26.3654 37.9019 24.5481 39.6326 23.1635 40.5269C24.6635 40.5845 26.9423 41.1903 29.1346 43.7288C24.1154 43.6999 22.3269 42.373 21.7212 41.4788C21.9519 42.5172 21.7212 44.6807 18.2308 48.1999C17.8558 44.9115 18.9808 42.9211 19.9904 41.8249Z" fill="#70B744"/>
<path d="M34.3849 41.8537C32.7984 41.3633 30.4907 40.1517 27.8945 37.2094C32.4522 38.3344 34.6157 39.8633 35.6253 40.9306C35.1349 39.8633 34.8176 37.7575 37.6445 34.8152C38.8272 38.1902 38.0772 40.0075 37.2695 40.9017C38.683 40.3536 41.1061 39.921 45.0003 40.3248C41.8561 42.1133 39.4041 42.546 37.7311 42.5171C38.9426 43.4113 40.5003 45.1421 40.9618 48.4594C36.7791 45.6613 36.0291 43.5844 36.0003 42.4883C35.6253 43.4979 34.2407 45.171 29.3945 46.1806C30.8945 43.2671 32.9426 42.2287 34.3849 41.8537Z" fill="#70B744"/>
<path d="M35.2798 34.3248C36.7221 35.1037 39.2028 35.9402 43.1259 35.796C39.1451 33.2864 36.549 32.7671 35.0778 32.796C36.174 32.421 37.9336 31.1806 38.0778 27.0844C34.8182 28.5844 34.0394 30.3729 33.9528 31.5844C33.3471 30.171 31.9913 28.1517 29.0201 25.6133C29.9144 29.1037 31.299 31.1806 32.4528 32.3633C30.9528 32.1037 28.6163 32.1902 25.9336 34.1517C30.8374 35.2479 32.8567 34.3248 33.6644 33.6037C33.2028 34.5844 32.9721 36.7479 35.5682 40.9306C36.6644 37.7864 36.0009 35.594 35.2798 34.3248Z" fill="#94C93D"/>
<path d="M22.5578 35.7384C21.2598 36.1422 19.1252 36.4018 16.0098 35.623C19.6155 34.2672 21.779 34.2961 22.9617 34.5557C22.1251 34.0653 20.9425 32.7961 21.4905 29.4788C23.8559 31.2095 24.1732 32.7961 24.0578 33.7768C24.779 32.7384 26.1925 31.3538 29.0194 29.7961C27.7213 32.4499 26.2501 33.8922 25.1251 34.6422C26.3655 34.6711 28.2117 35.1326 30.0578 37.1807C25.9328 37.2384 24.4617 36.1711 23.9425 35.4499C24.1444 36.3153 23.9713 38.0749 21.2021 41.0172C20.8559 38.3057 21.7501 36.6615 22.5578 35.7384Z" fill="#94C93D"/>
<path d="M38.7121 49.9307H19.7891L21.4044 65.5941H37.0679L38.7121 49.9307Z" fill="#7D5426"/>
<path d="M39.3758 52.123H19.0969L18.9238 49.9307H39.5488L39.3758 52.123Z" fill="#956235"/>
<path d="M27 46.7288C28.3558 46.873 30.4327 47.4499 33 49.3538C29.1346 49.2384 27.1442 48.373 26.1635 47.6807C26.7404 48.4307 27.375 50.0749 25.5865 52.9307C24.0577 50.4211 24.375 48.8634 24.8654 47.998C23.8269 48.6615 21.9519 49.4403 18.75 49.7865C20.9712 47.8249 22.875 47.0461 24.2019 46.7865C23.0769 46.2961 21.5192 45.1422 20.5962 42.5749C24.4327 44.1038 25.3846 45.6326 25.5865 46.498C25.7308 45.6326 26.5385 44.0461 30.2596 42.4019C29.5385 44.998 28.0673 46.1807 27 46.7288Z" fill="#94C93D"/>
<path d="M56.7646 20.4453C54.6748 20.4453 53.3662 21.8467 53.3662 24.0928C53.3662 26.334 54.6748 27.7354 56.7646 27.7354C58.8496 27.7354 60.1631 26.334 60.1631 24.0928C60.1631 21.8467 58.8496 20.4453 56.7646 20.4453ZM56.7646 21.6758C57.917 21.6758 58.6543 22.6133 58.6543 24.0928C58.6543 25.5674 57.917 26.5 56.7646 26.5C55.6074 26.5 54.8701 25.5674 54.8701 24.0928C54.8701 22.6133 55.6123 21.6758 56.7646 21.6758ZM62.5898 21.7197H63.8447C64.5771 21.7197 65.0361 22.1592 65.0361 22.8428C65.0361 23.541 64.6016 23.9658 63.8594 23.9658H62.5898V21.7197ZM62.5898 25.0352H63.7715L65.085 27.6133H66.7549L65.2705 24.8154C66.0811 24.498 66.5498 23.7168 66.5498 22.8135C66.5498 21.4219 65.6221 20.5674 64.001 20.5674H61.1152V27.6133H62.5898V25.0352ZM70.6367 27.7354C72.3652 27.7354 73.5713 26.7393 73.7373 25.167H72.3018C72.1455 26.002 71.5156 26.5146 70.6416 26.5146C69.5137 26.5146 68.8057 25.5869 68.8057 24.083C68.8057 22.5986 69.5234 21.666 70.6367 21.666C71.4961 21.666 72.1602 22.2324 72.2969 23.0967H73.7324C73.6201 21.5195 72.3311 20.4453 70.6367 20.4453C68.5957 20.4453 67.3018 21.8174 67.3018 24.0879C67.3018 26.3633 68.5859 27.7354 70.6367 27.7354ZM80.7734 27.6133V20.5674H79.2988V23.4287H76.125V20.5674H74.6504V27.6133H76.125V24.6445H79.2988V27.6133H80.7734ZM83.4199 27.6133V20.5674H81.9453V27.6133H83.4199ZM89.1475 26.3926H86.0664V20.5674H84.5918V27.6133H89.1475V26.3926ZM90.0215 20.5674V27.6133H92.7119C94.8262 27.6133 96.0713 26.2998 96.0713 24.0635C96.0713 21.8271 94.8262 20.5674 92.7119 20.5674H90.0215ZM91.4961 21.7832H92.5361C93.835 21.7832 94.5674 22.5938 94.5674 24.0684C94.5674 25.5918 93.8545 26.3926 92.5361 26.3926H91.4961V21.7832ZM99.5137 27.6133H100.598L100.969 25.7578H102.155L102.351 24.7031H101.174L101.442 23.3848H102.609L102.805 22.3398H101.652L102.009 20.5625H100.925L100.568 22.3398H99.3037L99.6553 20.5625H98.5811L98.2197 22.3398H97.0869L96.8867 23.3848H98.0098L97.7461 24.7031H96.6377L96.4375 25.7578H97.5361L97.1699 27.6133H98.2441L98.6201 25.7578H99.8848L99.5137 27.6133ZM98.7373 24.7959L99.04 23.2969H100.446L100.139 24.7959H98.7373ZM105.065 27.6133H106.525V20.5674H105.061L103.239 21.832V23.1602L105.036 21.9199H105.065V27.6133Z" fill="white"/>
<rect x="64" y="39.6133" width="40" height="1" rx="0.5" fill="white"/>
<rect x="53" y="45.6133" width="51" height="1" rx="0.5" fill="white"/>
<rect x="53" y="51.6133" width="51" height="1" rx="0.5" fill="white"/>
<rect x="53" y="57.6133" width="51" height="1" rx="0.5" fill="white"/>
<rect x="53" y="63.6133" width="51" height="1" rx="0.5" fill="white"/>
</svg>
