<svg width="111" height="83" viewBox="0 0 111 83" fill="none" xmlns="http://www.w3.org/2000/svg">
<rect width="111" height="83" rx="4" fill="#2DDA93" fill-opacity="0.5"/>
<path d="M54.7646 19.832C52.6748 19.832 51.3662 21.2334 51.3662 23.4795C51.3662 25.7207 52.6748 27.1221 54.7646 27.1221C56.8496 27.1221 58.1631 25.7207 58.1631 23.4795C58.1631 21.2334 56.8496 19.832 54.7646 19.832ZM54.7646 21.0625C55.917 21.0625 56.6543 22 56.6543 23.4795C56.6543 24.9541 55.917 25.8867 54.7646 25.8867C53.6074 25.8867 52.8701 24.9541 52.8701 23.4795C52.8701 22 53.6123 21.0625 54.7646 21.0625ZM60.5898 21.1064H61.8447C62.5771 21.1064 63.0361 21.5459 63.0361 22.2295C63.0361 22.9277 62.6016 23.3525 61.8594 23.3525H60.5898V21.1064ZM60.5898 24.4219H61.7715L63.085 27H64.7549L63.2705 24.2021C64.0811 23.8848 64.5498 23.1035 64.5498 22.2002C64.5498 20.8086 63.6221 19.9541 62.001 19.9541H59.1152V27H60.5898V24.4219ZM68.6367 27.1221C70.3652 27.1221 71.5713 26.126 71.7373 24.5537H70.3018C70.1455 25.3887 69.5156 25.9014 68.6416 25.9014C67.5137 25.9014 66.8057 24.9736 66.8057 23.4697C66.8057 21.9854 67.5234 21.0527 68.6367 21.0527C69.4961 21.0527 70.1602 21.6191 70.2969 22.4834H71.7324C71.6201 20.9062 70.3311 19.832 68.6367 19.832C66.5957 19.832 65.3018 21.2041 65.3018 23.4746C65.3018 25.75 66.5859 27.1221 68.6367 27.1221ZM78.7734 27V19.9541H77.2988V22.8154H74.125V19.9541H72.6504V27H74.125V24.0312H77.2988V27H78.7734ZM81.4199 27V19.9541H79.9453V27H81.4199ZM82.5918 19.9541V27H85.2822C87.3965 27 88.6416 25.6865 88.6416 23.4502C88.6416 21.2139 87.3965 19.9541 85.2822 19.9541H82.5918ZM84.0664 21.1699H85.1064C86.4053 21.1699 87.1377 21.9805 87.1377 23.4551C87.1377 24.9785 86.4248 25.7793 85.1064 25.7793H84.0664V21.1699Z" fill="white"/>
<rect x="51" y="39" width="29" height="1" rx="0.5" fill="white"/>
<rect x="51" y="45" width="36" height="1" rx="0.5" fill="white"/>
<rect x="96.5" y="39.5" width="6" height="6" rx="0.5" stroke="white"/>
<rect x="51" y="51" width="29" height="1" rx="0.5" fill="white"/>
<rect x="51" y="57" width="36" height="1" rx="0.5" fill="white"/>
<rect x="96.5" y="51.5" width="6" height="6" rx="0.5" stroke="white"/>
<rect x="51" y="63" width="29" height="1" rx="0.5" fill="white"/>
<rect x="51" y="69" width="36" height="1" rx="0.5" fill="white"/>
<rect x="96.5" y="63.5" width="6" height="6" rx="0.5" stroke="white"/>
<g clip-path="url(#clip0_96_53)">
<path d="M23.9321 56.8766C23.7812 56.8968 23.6427 56.7899 23.6256 56.6387C22.8122 49.4749 24.6329 42.0458 28.6506 36.1723C28.7419 36.0389 28.9268 36.0113 29.0542 36.1108V36.1108C29.1724 36.2032 29.1975 36.3718 29.1128 36.4956C25.1654 42.2581 23.3669 49.5414 24.1687 56.5717C24.1857 56.7208 24.0808 56.8568 23.9321 56.8766V56.8766Z" fill="#456C0A"/>
<path d="M24.0673 56.9831C24.0632 57.1367 23.9354 57.2577 23.7818 57.2537V57.2537C23.6281 57.2497 23.5067 57.1219 23.5108 56.9682C23.6888 50.3015 23.8387 43.4313 21.9451 36.9276C21.7472 36.2291 21.5059 35.802 21.2005 35.6106C21.069 35.5282 20.9643 35.3857 20.9907 35.2327V35.2327C21.0181 35.0736 21.1739 34.9657 21.3211 35.032C21.9852 35.3312 22.2893 36.1387 22.4738 36.7537C24.3951 43.3439 24.2453 50.2724 24.0673 56.9831Z" fill="#456C0A"/>
<path d="M25.1829 56.4345C25.0324 56.4587 24.8907 56.3555 24.8709 56.2043C24.3643 52.3431 25.4953 48.2771 27.9009 45.2899C28.1201 45.016 28.3738 44.7331 28.6755 44.5332C28.8092 44.4446 28.9822 44.5125 29.0451 44.66V44.66C29.1054 44.8014 29.0417 44.9638 28.9173 45.0541C28.7107 45.2042 28.522 45.4121 28.3183 45.6667C26.0091 48.5249 24.92 52.4054 25.4135 56.1213C25.4334 56.2709 25.3319 56.4106 25.1829 56.4345V56.4345Z" fill="#456C0A"/>
<path d="M23.7136 57.5482C23.7137 57.7014 23.5892 57.8261 23.4361 57.8261V57.8261C23.2819 57.8261 23.1572 57.6998 23.1571 57.5456C23.1524 51.7511 22.1498 47.1741 20.1096 43.5797C19.7478 42.9276 19.2748 42.2029 18.6209 41.6812C18.0617 41.2474 17.411 41.0362 16.8253 41.1019C16.6629 41.1201 16.4989 41.0302 16.4562 40.8724V40.8724C16.4144 40.7181 16.5042 40.5569 16.6622 40.5329C17.4044 40.4201 18.2382 40.6636 18.9409 41.2029C19.6783 41.7681 20.1791 42.5652 20.5687 43.2609C22.692 46.9852 23.7093 51.6508 23.7136 57.5482Z" fill="#456C0A"/>
<path d="M24.5783 57.3985C24.424 57.4025 24.2961 57.2805 24.2932 57.1262C24.2243 53.4015 24.0827 48.8634 21.9886 45.3434C21.9123 45.2153 21.946 45.049 22.0685 44.964V44.964C22.1993 44.8731 22.3799 44.9099 22.4613 45.0469C24.6254 48.6909 24.7675 53.3234 24.8489 57.1153C24.8522 57.2683 24.7313 57.3945 24.5783 57.3985V57.3985Z" fill="#456C0A"/>
<path d="M32.6535 58.2802C32.8878 55.9261 31.0389 53.884 28.6732 53.884H19.1893C16.8222 53.884 14.9728 55.9284 15.2093 58.2836L15.9922 66.0807C16.1974 68.1249 17.9178 69.6811 19.9722 69.6811H27.8972C29.9529 69.6811 31.674 68.1229 31.8775 66.0773L32.6535 58.2802Z" fill="#7C5327"/>
<path d="M33.8227 55.0687C33.7792 55.6431 33.3004 56.0869 32.7244 56.0869H15.1429C14.5695 56.0869 14.092 55.6471 14.0451 55.0756V55.0756C13.9924 54.4339 14.499 53.884 15.1429 53.884H32.7244C33.3655 53.884 33.8711 54.4294 33.8227 55.0687V55.0687Z" fill="#936134"/>
<path d="M33.1888 47.377C32.6056 44.1177 29.9343 42.7982 28.92 42.409C28.662 42.3099 28.4055 42.2083 28.1515 42.0994C27.1401 41.6658 25.9663 41.4843 25.0774 42.1016C24.4792 42.5219 24.1314 43.2321 23.8253 43.9132C23.5192 44.5944 23.2409 45.3045 23.227 46.0581C23.2181 46.5433 23.3417 47.0464 23.6016 47.4361C23.8265 47.7733 24.2864 47.5997 24.4786 47.2429V47.2429C24.8306 46.5894 25.403 47.2024 25.1734 47.9083C25.1495 47.982 25.1267 48.0561 25.1053 48.1306C25.0357 48.377 24.9801 48.6379 25.0496 48.8842C25.1053 49.0871 25.2444 49.2465 25.3835 49.3915C26.1323 50.1844 27.0377 50.8025 28.0296 51.2247C28.2196 51.3056 28.4346 51.2079 28.5226 51.0211V51.0211C28.7014 50.642 29.2543 50.9222 29.2588 51.3413C29.2594 51.4063 29.2616 51.4713 29.2653 51.5364C29.2792 51.6958 29.2931 51.8552 29.3488 52.0002C29.4322 52.1886 29.5853 52.3335 29.7522 52.4494C30.754 53.1741 32.0757 53.0726 33.2861 53.1161C34.9822 53.1877 36.6688 53.6133 38.2138 54.3605C38.8642 54.675 38.868 54.6756 38.297 54.2328C36.7644 53.0444 33.7345 50.3695 33.1888 47.377Z" fill="#548611"/>
<path d="M38.5589 50.6813C38.4754 50.29 38.3084 49.9277 38.1276 49.5799C37.6205 48.5587 36.9857 47.6041 36.2379 46.7622C36.1524 46.6659 36.2685 46.5094 36.3801 46.5739V46.5739C36.469 46.6252 36.5763 46.5418 36.5402 46.4456C35.5685 43.8555 33.2337 41.8533 30.6006 41.3915V41.3915C29.2088 41.1457 29.6027 42.5865 30.7301 43.4388C31.7614 44.2185 32.8375 45.4668 33.1885 47.3915C33.6222 49.7697 35.625 51.9475 37.2011 53.3378C37.8071 53.8724 38.7381 53.2276 38.698 52.4204V52.4204C38.6563 51.8262 38.6841 51.2465 38.5589 50.6813Z" fill="#456C0A"/>
<path d="M11.4845 44.7538C11.4515 41.9769 13.407 40.4083 14.2229 39.8755C14.4509 39.7266 14.6777 39.5772 14.9026 39.4238C15.6713 38.8994 16.6011 38.5616 17.4254 38.9277C17.9958 39.1741 18.3993 39.7103 18.7611 40.2321C19.1228 40.7538 19.4706 41.2901 19.5958 41.9277C19.6744 42.3188 19.6544 42.7499 19.5116 43.1171C19.3807 43.4535 18.9501 43.3864 18.7191 43.109V43.109C18.3063 42.6129 17.9348 43.2282 18.248 43.7925C18.286 43.8609 18.3225 43.9301 18.3576 44.0002C18.455 44.1886 18.5524 44.406 18.5245 44.6234C18.5106 44.7973 18.4132 44.9567 18.3158 45.1017C17.8144 45.8983 17.1547 46.5772 16.3879 47.096C16.2476 47.191 16.059 47.1459 15.9587 47.0094V47.0094C15.7536 46.7305 15.333 47.0563 15.3952 47.3967C15.4055 47.4528 15.4144 47.5091 15.4219 47.5654C15.4358 47.6959 15.4497 47.8408 15.4219 47.9712C15.3802 48.1451 15.2689 48.2901 15.1576 48.4205C14.4341 49.2031 13.3071 49.348 12.3054 49.5944C10.5941 50.0292 8.98018 50.8843 7.64453 52.1017C7.65844 52.0872 11.5124 48.2611 11.4845 44.7538Z" fill="#456C0A"/>
<path d="M7.51877 48.4495C7.53268 48.1162 7.60225 47.7684 7.69964 47.4495C7.95772 46.5145 8.33345 45.6077 8.81953 44.7747C8.87407 44.6813 8.74478 44.5692 8.66266 44.6396V44.6396C8.59809 44.695 8.50057 44.6416 8.51472 44.5578C8.90924 42.219 10.5407 40.1306 12.6666 39.2756V39.2756C13.7894 38.837 13.707 40.0995 12.9043 40.9987C12.1601 41.8324 11.45 43.0714 11.4701 44.7539C11.4947 46.8232 10.1632 49.0035 9.06725 50.4435C8.6516 50.9896 7.77898 50.6078 7.68572 49.9278V49.9278C7.61616 49.4351 7.50485 48.9423 7.51877 48.4495Z" fill="#548611"/>
<path d="M19.429 37.3334C19.1877 34.6033 20.9776 32.8996 21.7467 32.3004C21.9663 32.1293 22.1847 31.9572 22.4016 31.7828C23.1145 31.2093 24.0092 30.8107 24.8412 31.087C25.4255 31.2899 25.8707 31.7682 26.2603 32.2609C26.6499 32.7392 27.0394 33.2465 27.2203 33.8552C27.336 34.2445 27.3435 34.6814 27.221 35.0594C27.1145 35.3881 26.6991 35.3572 26.4579 35.1097V35.1097C26.0229 34.6634 25.6964 35.3025 26.0382 35.8237C26.0762 35.8818 26.1132 35.9406 26.149 36.0001C26.2603 36.1885 26.3716 36.3769 26.3577 36.5943C26.3577 36.7682 26.2742 36.9276 26.1907 37.087C25.7517 37.9102 25.1544 38.6391 24.4396 39.2206C24.31 39.3261 24.1197 39.2959 24.0105 39.1695V39.1695C23.7889 38.9128 23.393 39.274 23.4815 39.6014C23.4951 39.6518 23.5078 39.7026 23.5194 39.7537C23.5473 39.8841 23.5751 40.0146 23.5473 40.145C23.5194 40.3189 23.422 40.4783 23.3246 40.6088C22.6707 41.4349 21.5716 41.6667 20.5977 42.0001C20.1196 42.1633 19.6519 42.3616 19.1994 42.5924C17.3114 43.5556 17.3252 43.6094 18.3011 41.728C18.9939 40.3924 19.5596 38.8049 19.429 37.3334Z" fill="#66990C"/>
<path d="M15.8108 41.3045C15.7968 40.9712 15.8525 40.6379 15.9081 40.3045C16.0889 39.3515 16.398 38.4271 16.8206 37.5547C16.8696 37.4535 16.7356 37.3535 16.6562 37.433V37.433C16.5935 37.4957 16.4882 37.4488 16.4962 37.3605C16.7056 35.0321 18.1511 32.848 20.1934 31.8263V31.8263C21.2644 31.2927 21.2835 32.5499 20.5598 33.5029C19.8887 34.3867 19.2811 35.6694 19.4281 37.3335C19.609 39.3797 18.4594 41.6434 17.4882 43.1535C17.1223 43.7224 16.2344 43.4144 16.089 42.7538V42.7538C15.9777 42.2611 15.8247 41.7973 15.8108 41.3045Z" fill="#548611"/>
<path d="M20.8193 48.6666C19.9936 46.0521 21.3892 43.9728 22.0078 43.2187C22.1812 43.0074 22.3528 42.7954 22.5217 42.5805C23.0966 41.8489 23.8844 41.245 24.7566 41.3333C25.3688 41.3913 25.8975 41.7681 26.3984 42.1449C26.8853 42.5217 27.3723 42.9275 27.6784 43.4782C27.8744 43.8309 27.9791 44.2548 27.9414 44.6511C27.9084 44.998 27.494 45.0591 27.2008 44.8709V44.8709C26.6696 44.5299 26.4986 45.2286 26.9568 45.6627C27.0081 45.7113 27.0585 45.7609 27.1079 45.8116C27.261 45.9565 27.4001 46.1304 27.4419 46.3478C27.4697 46.5217 27.4419 46.6956 27.3862 46.8695C27.1358 47.7696 26.7162 48.6227 26.1378 49.3443C26.0305 49.4781 25.837 49.4923 25.6987 49.3911V49.3911C25.4165 49.1846 25.113 49.6191 25.2723 49.9303C25.2963 49.9772 25.3192 50.0246 25.341 50.0724C25.3966 50.1884 25.4523 50.3188 25.4523 50.4492C25.4662 50.6232 25.4106 50.7971 25.3271 50.9565C24.8679 51.913 23.8523 52.3913 22.9758 52.942C21.7754 53.683 20.726 54.6736 19.8914 55.8327C19.4776 56.4073 19.4866 56.4136 19.7685 55.7641C20.4496 54.1948 21.5601 51.0443 20.8193 48.6666Z" fill="#93C91C"/>
<path d="M18.1344 53.3768C18.0509 53.058 18.0231 52.7102 18.0231 52.3768C18.0005 51.3993 18.1065 50.4217 18.3263 49.4831C18.3512 49.3767 18.2008 49.3088 18.1448 49.4026V49.4026C18.0991 49.4793 17.9812 49.4595 17.9701 49.3709C17.6777 47.0431 18.6329 44.5961 20.3883 43.1304V43.1304C21.3222 42.3766 21.612 43.5662 21.1091 44.6559C20.6395 45.6734 20.3155 47.0702 20.8196 48.6667C21.4387 50.627 20.7895 53.1128 20.1589 54.8105C19.9252 55.44 18.9954 55.33 18.7049 54.7247V54.7247C18.5101 54.2754 18.2596 53.8551 18.1344 53.3768Z" fill="#71B70B"/>
<path d="M32.2428 37.2609C32.0919 34.8698 30.3466 33.6264 29.5675 33.1874C29.3257 33.0512 29.0834 32.9156 28.8412 32.78C28.141 32.3882 27.3228 32.1806 26.6358 32.5507C26.1488 32.8116 25.8288 33.3043 25.5367 33.7971C25.2584 34.2754 24.9801 34.7826 24.9106 35.3478C24.8671 35.701 24.9106 36.0769 25.0579 36.3869C25.1952 36.6757 25.5708 36.5856 25.7564 36.3252V36.3252C26.0904 35.8565 26.4613 36.3736 26.2189 36.8957C26.1895 36.9588 26.1616 37.0226 26.1349 37.087C26.0654 37.2609 25.9958 37.4638 26.0236 37.6522C26.0514 37.8116 26.1349 37.942 26.2323 38.058C26.7172 38.7184 27.3464 39.2631 28.0407 39.6715C28.1771 39.7517 28.3515 39.6938 28.4349 39.5592V39.5592C28.6005 39.2918 28.9976 39.5609 28.9605 39.8733C28.9543 39.9251 28.9493 39.9771 28.9454 40.029C28.9315 40.1449 28.9315 40.2754 28.9732 40.3768C29.0149 40.5217 29.1262 40.6522 29.2375 40.7536C29.9193 41.3913 30.921 41.4348 31.8254 41.5797V41.5797C33.7053 41.8973 34.0301 41.5104 33.0964 39.848C32.6393 39.0342 32.2987 38.1475 32.2428 37.2609Z" fill="#93C91C"/>
<path d="M35.971 40.2318C35.9431 39.9274 35.8457 39.6376 35.7484 39.3622C35.454 38.5485 35.0583 37.7732 34.5688 37.0675C34.514 36.9885 34.6211 36.8848 34.6983 36.942V36.942C34.7599 36.9876 34.8419 36.9312 34.8239 36.8568C34.3297 34.8204 32.7452 33.1097 30.8231 32.5216V32.5216C29.8031 32.2004 29.9705 33.3148 30.7407 34.0566C31.4473 34.7371 32.1491 35.7766 32.2423 37.2608C32.3571 39.0808 33.6713 40.9058 34.7308 42.0973C35.1294 42.5456 35.8761 42.1492 35.9153 41.5506V41.5506C35.9431 41.1013 36.0127 40.6665 35.971 40.2318Z" fill="#71B70B"/>
</g>
<defs>
<clipPath id="clip0_96_53">
<rect width="31.68" height="40.5507" fill="white" transform="translate(7.51953 31)"/>
</clipPath>
</defs>
</svg>
