<svg width="116" height="84" viewBox="0 0 116 84" fill="none" xmlns="http://www.w3.org/2000/svg">
<rect y="0.613281" width="116" height="83" rx="4" fill="#2DDA93" fill-opacity="0.5"/>
<g clip-path="url(#clip0_36_251)">
<path d="M24.0924 55.4903C23.9364 55.5103 23.7935 55.4 23.7751 55.2438C22.9299 48.0801 24.8282 40.6516 29.0149 34.7794C29.1087 34.6478 29.2925 34.6203 29.4218 34.7173C29.5486 34.8124 29.5754 34.9917 29.4834 35.1208C25.3802 40.8777 23.5096 48.15 24.3402 55.1712C24.3587 55.3274 24.2485 55.4703 24.0924 55.4903Z" fill="#456C0A"/>
<path d="M24.2387 55.5854C24.2343 55.7451 24.1015 55.871 23.9417 55.867C23.7813 55.863 23.6547 55.7297 23.6591 55.5693C23.8444 48.9064 23.9992 42.0406 22.0279 35.5409C21.8207 34.839 21.5679 34.4111 21.2476 34.2211C21.1126 34.141 21.0067 33.9964 21.0344 33.8419C21.0627 33.6843 21.2165 33.5775 21.3641 33.6394C22.0654 33.9338 22.3851 34.7479 22.5786 35.367C24.5788 41.9536 24.424 48.8782 24.2387 55.5854Z" fill="#456C0A"/>
<path d="M25.3966 55.0483C25.2411 55.0723 25.0953 54.966 25.074 54.8102C24.5488 50.9511 25.7271 46.8885 28.2314 43.9032C28.4629 43.6253 28.7315 43.3382 29.0518 43.1379C29.1858 43.0541 29.3555 43.121 29.4197 43.2654C29.4839 43.4099 29.4181 43.5779 29.2885 43.6685C29.0739 43.8185 28.8778 44.0261 28.6662 44.28C26.2638 47.1346 25.1291 51.0088 25.6384 54.7203C25.6599 54.8773 25.5532 55.0243 25.3966 55.0483Z" fill="#456C0A"/>
<path d="M23.8687 56.15C23.8689 56.3095 23.7392 56.4394 23.5797 56.4394C23.4191 56.4394 23.2892 56.3078 23.289 56.1472C23.2827 50.3582 22.2383 45.785 20.1145 42.193C19.7377 41.5408 19.245 40.8162 18.5638 40.2945C17.9759 39.8567 17.2908 39.6456 16.6763 39.7171C16.5158 39.7358 16.3545 39.6471 16.3106 39.4916C16.2664 39.335 16.3581 39.1706 16.5192 39.1468C17.2934 39.0324 18.1638 39.2759 18.8971 39.8162C19.6653 40.3814 20.187 41.1785 20.5928 41.8742C22.8031 45.5961 23.8629 50.258 23.8687 56.15Z" fill="#456C0A"/>
<path d="M24.7677 56.0118C24.6072 56.0158 24.4741 55.8889 24.471 55.7283C24.3992 52.0103 24.2501 47.4843 22.0786 43.9697C21.9957 43.8356 22.0315 43.6588 22.1627 43.5713C22.2957 43.4827 22.4757 43.5194 22.5599 43.6552C24.8147 47.2962 24.9648 51.9251 25.0498 55.7165C25.0534 55.876 24.9272 56.0078 24.7677 56.0118Z" fill="#456C0A"/>
<path d="M33.1803 56.9098C33.4249 54.5501 31.5739 52.4973 29.2016 52.4973H18.9909C16.6172 52.4973 14.7657 54.5525 15.0126 56.9134L15.8281 64.7105C16.0412 66.7474 17.7584 68.2944 19.8064 68.2944H28.3933C30.4427 68.2944 32.1606 66.7454 32.372 64.7069L33.1803 56.9098Z" fill="#7C5327"/>
<path d="M34.3986 53.6855C34.3534 54.2584 33.8753 54.7002 33.3006 54.7002H14.895C14.3231 54.7002 13.8463 54.2625 13.7975 53.6926C13.7425 53.0496 14.2496 52.4973 14.895 52.4973H33.3006C33.9431 52.4973 34.4492 53.045 34.3986 53.6855Z" fill="#936134"/>
<path d="M33.7386 45.9903C33.1263 42.7049 30.3037 41.3904 29.2669 41.0131C29.015 40.9214 28.7637 40.8259 28.5162 40.7229C27.4571 40.282 26.2225 40.0928 25.2893 40.7149C24.6661 41.1352 24.3038 41.8453 23.985 42.5265C23.6661 43.2077 23.3763 43.9178 23.3618 44.6714C23.3522 45.1682 23.4875 45.6839 23.7719 46.0774C24.0064 46.4019 24.4557 46.2354 24.6495 45.885C25.0129 45.2278 25.6048 45.8652 25.3703 46.5786C25.3522 46.6335 25.3349 46.6886 25.3183 46.7439C25.2459 46.9903 25.1879 47.2511 25.2604 47.4975C25.3183 47.7004 25.4632 47.8598 25.6082 48.0048C26.3912 48.8008 27.3386 49.4206 28.3766 49.8429C28.5695 49.9214 28.7844 49.8255 28.8761 49.6385C29.0654 49.2524 29.6378 49.5505 29.6452 49.9805C29.6462 50.0369 29.6483 50.0933 29.6517 50.1497C29.6661 50.3091 29.6806 50.4685 29.7386 50.6135C29.8256 50.8019 29.985 50.9468 30.1589 51.0627C31.2024 51.7874 32.5792 51.6859 33.8401 51.7294C35.6313 51.802 37.4125 52.2385 39.04 53.0051C39.6718 53.3027 39.6745 53.3011 39.1131 52.8857C37.5347 51.7179 34.3135 49.0164 33.7386 45.9903Z" fill="#548611"/>
<path d="M39.3329 49.2946C39.2459 48.9033 39.072 48.541 38.8836 48.1931C38.3576 47.1761 37.6995 46.225 36.9246 45.3856C36.8349 45.2885 36.9517 45.1252 37.0673 45.1894C37.159 45.2402 37.2671 45.1534 37.2289 45.0557C36.2159 42.4671 33.7848 40.4664 31.0431 40.0047C29.6133 39.7624 30.0003 41.1985 31.1745 42.0496C32.2498 42.8291 33.3727 44.078 33.7387 46.0047C34.1947 48.4053 36.3159 50.6015 37.9645 51.9899C38.5875 52.5146 39.5199 51.8472 39.4778 51.0337C39.4344 50.4395 39.4633 49.8598 39.3329 49.2946Z" fill="#456C0A"/>
<path d="M11.1289 43.3671C11.0942 40.5715 13.1591 39.0006 13.9984 38.4782C14.2255 38.3368 14.4508 38.1944 14.6741 38.0471C15.4777 37.5171 16.4532 37.1725 17.3173 37.541C17.9115 37.7874 18.3318 38.3236 18.7086 38.8454C19.0854 39.3671 19.4477 39.9033 19.5782 40.541C19.6622 40.9425 19.638 41.386 19.4784 41.7593C19.339 42.0852 18.9213 42.0232 18.6916 41.7533C18.2681 41.2556 17.8842 41.89 18.2049 42.4595C18.2335 42.5104 18.2613 42.5617 18.2883 42.6135C18.3898 42.8019 18.4912 43.0193 18.4622 43.2367C18.4477 43.4106 18.3463 43.57 18.2448 43.7149C17.7201 44.5152 17.0291 45.1967 16.2256 45.7164C16.0838 45.8081 15.8981 45.7652 15.7957 45.6309C15.5808 45.3489 15.1458 45.6944 15.2087 46.0433C15.2168 46.0883 15.224 46.1335 15.2304 46.1787C15.2448 46.3091 15.2593 46.4541 15.2304 46.5845C15.1869 46.7584 15.0709 46.9033 14.955 47.0338C14.2014 47.8164 13.0275 47.9613 11.984 48.2077C10.2014 48.6425 8.52021 49.4975 7.12891 50.7149C7.1434 50.7004 11.1579 46.8744 11.1289 43.3671Z" fill="#456C0A"/>
<path d="M6.99929 47.0628C7.01378 46.7295 7.08624 46.3817 7.18769 46.0628C7.45545 45.1315 7.84477 44.2282 8.34814 43.3981C8.40606 43.3026 8.27451 43.184 8.18829 43.255C8.121 43.3104 8.02202 43.2546 8.03714 43.1687C8.4488 40.8309 10.1478 38.7436 12.3616 37.8889C13.5188 37.4549 13.4358 38.7179 12.5968 39.6254C11.8261 40.459 11.0945 41.6937 11.1152 43.3672C11.1411 45.4506 9.73492 47.6465 8.58898 49.0861C8.15447 49.632 7.27186 49.2317 7.1732 48.5411C7.10074 48.0483 6.98479 47.5556 6.99929 47.0628Z" fill="#548611"/>
<path d="M19.4053 35.9467C19.1526 33.2012 21.0396 31.4937 21.8331 30.9036C22.0539 30.7394 22.2728 30.5739 22.4901 30.4051C23.2346 29.8268 24.1718 29.4225 25.043 29.7003C25.6517 29.9032 26.1154 30.3815 26.5212 30.8742C26.927 31.3525 27.3328 31.8597 27.5212 32.4684C27.6447 32.8674 27.6499 33.3162 27.5123 33.7005C27.3981 34.0195 26.996 33.9927 26.7569 33.7527C26.3114 33.3055 25.9744 33.963 26.3244 34.4882C26.3519 34.5296 26.3789 34.5713 26.4053 34.6134C26.5212 34.8018 26.6372 34.9902 26.6227 35.2076C26.6227 35.3815 26.5357 35.5409 26.4488 35.7003C25.9893 36.5273 25.3635 37.2591 24.6142 37.842C24.4832 37.944 24.2967 37.9158 24.1861 37.7921C23.9547 37.5334 23.5457 37.9155 23.6365 38.2504C23.647 38.2891 23.6569 38.328 23.6662 38.367C23.6951 38.4974 23.7241 38.6279 23.6951 38.7583C23.6662 38.9322 23.5647 39.0916 23.4633 39.2221C22.7821 40.0481 21.6372 40.28 20.6227 40.6134C20.1426 40.7707 19.6727 40.9606 19.2172 41.1809C17.2522 42.1311 17.2579 42.1745 18.2811 40.2465C18.9794 38.9309 19.5381 37.3835 19.4053 35.9467Z" fill="#66990C"/>
<path d="M15.637 39.9178C15.6225 39.5845 15.6805 39.2511 15.7385 38.9178C15.926 37.9684 16.2462 37.0475 16.6839 36.178C16.7361 36.0741 16.5993 35.9679 16.5154 36.0485C16.4499 36.1115 16.3427 36.0622 16.3512 35.9717C16.5701 33.6441 18.0755 31.461 20.2022 30.4395C21.3086 29.9104 21.3248 31.1716 20.5679 32.1366C19.8752 33.0196 19.2531 34.2954 19.4051 35.9468C19.5945 38.0042 18.3829 40.2815 17.3677 41.7916C16.9827 42.3643 16.081 42.0397 15.9269 41.3671C15.8109 40.8743 15.6515 40.4106 15.637 39.9178Z" fill="#548611"/>
<path d="M20.8551 47.2799C19.9936 44.6609 21.4537 42.5791 22.0964 41.8282C22.2753 41.6191 22.4523 41.4094 22.6264 41.1963C23.2254 40.4635 24.0469 39.8582 24.9565 39.9466C25.5942 40.0046 26.145 40.3814 26.6667 40.7582C27.1739 41.135 27.6812 41.5408 28 42.0915C28.2082 42.4511 28.3175 42.8848 28.2715 43.2877C28.2327 43.6279 27.8298 43.6901 27.5401 43.5076C26.9977 43.166 26.8199 43.878 27.2898 44.3141C27.329 44.3504 27.3677 44.3874 27.4058 44.4249C27.5652 44.5698 27.7102 44.7437 27.7536 44.9611C27.7826 45.135 27.7536 45.3089 27.6957 45.4828C27.4336 46.387 26.9938 47.2437 26.387 47.9674C26.2783 48.0971 26.0899 48.112 25.9518 48.0142C25.6604 47.808 25.3491 48.2635 25.5132 48.5807C25.5312 48.6154 25.5485 48.6505 25.5652 48.6857C25.6232 48.8017 25.6812 48.9321 25.6812 49.0625C25.6957 49.2364 25.6377 49.4104 25.5507 49.5698C25.0725 50.5263 24.0145 51.0046 23.1015 51.5553C21.8583 52.292 20.7706 53.2755 19.9036 54.426C19.4628 55.0109 19.472 55.0184 19.7726 54.3505C20.4831 52.7724 21.6224 49.6441 20.8551 47.2799Z" fill="#93C91C"/>
<path d="M18.0575 51.9901C17.9706 51.6713 17.9416 51.3234 17.9416 50.9901C17.9181 50.0153 18.0278 49.0405 18.2554 48.1042C18.2822 47.9941 18.1269 47.9215 18.0671 48.0179C18.0187 48.0959 17.8982 48.0748 17.8863 47.9837C17.5819 45.656 18.5769 43.2093 20.4053 41.7437C21.3758 40.9916 21.6616 42.1986 21.1373 43.3087C20.6584 44.3227 20.3362 45.7041 20.8546 47.28C21.5003 49.2427 20.8215 51.7322 20.1639 53.4302C19.9141 54.0753 18.9611 53.9567 18.6517 53.3379C18.4488 52.8887 18.1879 52.4684 18.0575 51.9901Z" fill="#71B70B"/>
<path d="M32.7521 35.8741C32.5936 33.4634 30.747 32.2194 29.9455 31.7901C29.7064 31.662 29.4666 31.5333 29.2282 31.4038C28.4945 31.0052 27.6335 30.7905 26.9115 31.164C26.4042 31.4249 26.0709 31.9176 25.7665 32.4104C25.4767 32.8886 25.1868 33.3959 25.1144 33.9611C25.0679 34.3237 25.1168 34.7102 25.2804 35.0249C25.4254 35.304 25.7907 35.2189 25.9761 34.9648C26.3195 34.494 26.7027 35.0288 26.4547 35.5561C26.4322 35.6038 26.4106 35.6518 26.3897 35.7002C26.3173 35.8741 26.2448 36.077 26.2738 36.2655C26.3028 36.4249 26.3897 36.5553 26.4912 36.6713C26.9986 37.3348 27.6578 37.8815 28.385 38.2905C28.5231 38.3681 28.6957 38.3122 28.7814 38.1789C28.9556 37.9077 29.367 38.1932 29.3298 38.5134C29.3249 38.5563 29.3207 38.5993 29.3173 38.6423C29.3028 38.7582 29.3028 38.8886 29.3463 38.9901C29.3897 39.135 29.5057 39.2655 29.6216 39.3669C30.3318 40.0046 31.3752 40.0481 32.3173 40.193C34.2914 40.5131 34.5956 40.1261 33.6007 38.3912C33.1451 37.5967 32.8087 36.7354 32.7521 35.8741Z" fill="#93C91C"/>
<path d="M36.6361 38.845C36.6071 38.5407 36.5057 38.2508 36.4042 37.9755C36.0988 37.1651 35.6888 36.3927 35.1817 35.6893C35.1238 35.609 35.2324 35.4997 35.3131 35.5571C35.377 35.6026 35.4599 35.5439 35.4406 35.4678C34.9253 33.4325 33.2752 31.7227 31.2738 31.1349C30.2235 30.8174 30.3895 31.9295 31.1941 32.6756C31.928 33.3562 32.6552 34.394 32.752 35.874C32.8726 37.7085 34.2624 39.548 35.3704 40.7388C35.7843 41.1837 36.5368 40.7702 36.5781 40.1639C36.6071 39.7146 36.6796 39.2798 36.6361 38.845Z" fill="#71B70B"/>
</g>
<path d="M56.7646 20.4453C54.6748 20.4453 53.3662 21.8467 53.3662 24.0928C53.3662 26.334 54.6748 27.7354 56.7646 27.7354C58.8496 27.7354 60.1631 26.334 60.1631 24.0928C60.1631 21.8467 58.8496 20.4453 56.7646 20.4453ZM56.7646 21.6758C57.917 21.6758 58.6543 22.6133 58.6543 24.0928C58.6543 25.5674 57.917 26.5 56.7646 26.5C55.6074 26.5 54.8701 25.5674 54.8701 24.0928C54.8701 22.6133 55.6123 21.6758 56.7646 21.6758ZM62.5898 21.7197H63.8447C64.5771 21.7197 65.0361 22.1592 65.0361 22.8428C65.0361 23.541 64.6016 23.9658 63.8594 23.9658H62.5898V21.7197ZM62.5898 25.0352H63.7715L65.085 27.6133H66.7549L65.2705 24.8154C66.0811 24.498 66.5498 23.7168 66.5498 22.8135C66.5498 21.4219 65.6221 20.5674 64.001 20.5674H61.1152V27.6133H62.5898V25.0352ZM70.6367 27.7354C72.3652 27.7354 73.5713 26.7393 73.7373 25.167H72.3018C72.1455 26.002 71.5156 26.5146 70.6416 26.5146C69.5137 26.5146 68.8057 25.5869 68.8057 24.083C68.8057 22.5986 69.5234 21.666 70.6367 21.666C71.4961 21.666 72.1602 22.2324 72.2969 23.0967H73.7324C73.6201 21.5195 72.3311 20.4453 70.6367 20.4453C68.5957 20.4453 67.3018 21.8174 67.3018 24.0879C67.3018 26.3633 68.5859 27.7354 70.6367 27.7354ZM80.7734 27.6133V20.5674H79.2988V23.4287H76.125V20.5674H74.6504V27.6133H76.125V24.6445H79.2988V27.6133H80.7734ZM83.4199 27.6133V20.5674H81.9453V27.6133H83.4199ZM89.1475 26.3926H86.0664V20.5674H84.5918V27.6133H89.1475V26.3926ZM90.0215 20.5674V27.6133H92.7119C94.8262 27.6133 96.0713 26.2998 96.0713 24.0635C96.0713 21.8271 94.8262 20.5674 92.7119 20.5674H90.0215ZM91.4961 21.7832H92.5361C93.835 21.7832 94.5674 22.5938 94.5674 24.0684C94.5674 25.5918 93.8545 26.3926 92.5361 26.3926H91.4961V21.7832ZM99.5137 27.6133H100.598L100.969 25.7578H102.155L102.351 24.7031H101.174L101.442 23.3848H102.609L102.805 22.3398H101.652L102.009 20.5625H100.925L100.568 22.3398H99.3037L99.6553 20.5625H98.5811L98.2197 22.3398H97.0869L96.8867 23.3848H98.0098L97.7461 24.7031H96.6377L96.4375 25.7578H97.5361L97.1699 27.6133H98.2441L98.6201 25.7578H99.8848L99.5137 27.6133ZM98.7373 24.7959L99.04 23.2969H100.446L100.139 24.7959H98.7373ZM103.22 22.6865V22.7109H104.587V22.6865C104.587 22.0371 105.09 21.5586 105.773 21.5586C106.428 21.5586 106.892 21.9785 106.892 22.5059C106.892 22.9941 106.672 23.3506 105.959 24.0635L103.303 26.6221V27.6133H108.425V26.4414H105.246V26.4121L106.965 24.7568C107.741 23.9854 108.327 23.3262 108.327 22.4473C108.327 21.2705 107.307 20.4111 105.822 20.4111C104.284 20.4111 103.22 21.3535 103.22 22.6865Z" fill="white"/>
<rect x="64" y="39.6133" width="40" height="1" rx="0.5" fill="white"/>
<rect x="53" y="45.6133" width="51" height="1" rx="0.5" fill="white"/>
<rect x="53" y="51.6133" width="51" height="1" rx="0.5" fill="white"/>
<rect x="53" y="57.6133" width="51" height="1" rx="0.5" fill="white"/>
<rect x="53" y="63.6133" width="51" height="1" rx="0.5" fill="white"/>
<defs>
<clipPath id="clip0_36_251">
<rect width="33" height="40.5507" fill="white" transform="translate(7 29.6133)"/>
</clipPath>
</defs>
</svg>
