<svg width="36" height="36" viewBox="0 0 36 36" fill="none" xmlns="http://www.w3.org/2000/svg">
<g filter="url(#filter0_d_96_9)">
<path d="M8.34953 19.2391C7.79534 17.5631 7.7437 15.7664 8.20073 14.0624C8.65776 12.3585 9.60424 10.819 10.9277 9.62696C11.9998 8.64823 13.3364 7.99235 14.7782 7.7375C16.2199 7.48266 17.706 7.63961 19.0593 8.18963C20.6072 8.7213 21.9696 9.67198 22.9889 10.9315C24.0082 12.1911 24.6425 13.708 24.8185 15.3064C24.8257 15.485 24.8724 15.6599 24.9555 15.819C25.0386 15.9782 25.156 16.1176 25.2995 16.2278C25.4431 16.338 25.6094 16.4162 25.787 16.457C25.9645 16.4978 26.1489 16.5003 26.3275 16.4643C26.507 16.437 26.6785 16.3725 26.8306 16.2751C26.9826 16.1777 27.1117 16.0496 27.2093 15.8994C27.3068 15.7492 27.3705 15.5803 27.3962 15.404C27.4218 15.2278 27.4088 15.0482 27.358 14.8772C27.1059 12.836 26.2731 10.9055 24.9547 9.3063C23.6363 7.70714 21.8855 6.50386 19.9024 5.83401C18.1339 5.10174 16.1877 4.88383 14.2962 5.20631C12.4047 5.52878 10.6479 6.37802 9.23539 7.65263C7.96 8.75781 6.9512 10.1271 6.28201 11.6614C5.61281 13.1958 5.29996 14.8567 5.36609 16.5242C5.38646 16.8755 5.38442 17.4005 5.4557 17.9216C5.80926 21.4504 7.28453 24.7812 9.67323 27.4439C9.80936 27.6458 10.0028 27.8042 10.2297 27.8997C10.4566 27.9951 10.707 28.0233 10.9501 27.9809C11.1896 27.9476 11.4148 27.849 11.5998 27.6962C11.7849 27.5434 11.9223 27.3427 11.9965 27.117C12.0706 26.8912 12.0784 26.6496 12.0191 26.4197C11.9597 26.1898 11.8356 25.9809 11.6608 25.8169C9.99686 23.9409 8.85615 21.6749 8.34953 19.2391V19.2391Z" fill="white"/>
<path d="M31.7238 22.7544C31.6287 22.597 31.5008 22.4609 31.3485 22.3551C31.1961 22.2494 31.0228 22.1762 30.8398 22.1404C30.6567 22.1047 30.468 22.1071 30.2859 22.1475C30.1039 22.1879 29.9325 22.2655 29.7831 22.3751C29.4878 22.5408 29.1945 22.7085 28.8931 22.8642C27.3768 23.7515 25.5754 24.0474 23.8468 23.6931C22.1182 23.3388 20.5887 22.3603 19.562 20.9517C18.4137 19.4665 17.6954 17.7051 17.4828 15.8532C17.4758 15.6791 17.432 15.5084 17.3541 15.3518C17.2761 15.1953 17.1658 15.0563 17.0302 14.9438C16.8945 14.8313 16.7364 14.7477 16.566 14.6983C16.3956 14.6489 16.2166 14.6348 16.0403 14.6569C15.864 14.679 15.6944 14.7368 15.5421 14.8266C15.3899 14.9165 15.2584 15.0364 15.156 15.1788C15.0535 15.3212 14.9825 15.4829 14.9473 15.6536C14.9121 15.8244 14.9135 16.0004 14.9514 16.1706C15.0867 17.6901 15.5232 19.169 16.2365 20.5245C16.9334 22.1447 18.0761 23.5431 19.5368 24.5636C20.9975 25.5842 22.7188 26.1866 24.5086 26.3038C26.8358 26.3683 29.1309 25.7608 31.1088 24.557C31.2741 24.4828 31.4221 24.3762 31.5436 24.2436C31.6651 24.1111 31.7575 23.9555 31.8152 23.7865C31.8728 23.6175 31.8945 23.4387 31.8788 23.2611C31.8631 23.0836 31.8103 22.9111 31.7238 22.7544V22.7544Z" fill="white"/>
<path d="M29.9487 7.39091C28.9387 5.69317 27.5959 4.20817 25.9977 3.02149C24.3995 1.83482 22.5775 0.969934 20.6367 0.476691C18.696 -0.0165523 16.6749 -0.128401 14.6898 0.147591C12.7048 0.423583 10.7951 1.08196 9.07077 2.08477C7.62402 2.88202 6.30683 3.88659 5.16278 5.06523L4.26673 5.95758C4.06155 6.22806 3.96937 6.56509 4.009 6.89991C4.04864 7.23474 4.2171 7.54212 4.48001 7.75936C4.74293 7.97659 5.08049 8.08731 5.42384 8.06893C5.76718 8.05054 6.09043 7.90443 6.32764 7.66041L6.65348 7.31306C6.9508 6.97968 7.25016 6.66227 7.60247 6.31491C9.94897 4.04336 13.1144 2.77017 16.4123 2.7715C16.899 2.80743 17.5079 2.83737 18.1127 2.90125C20.7125 3.1982 23.1587 4.26302 25.1268 5.95445C27.0948 7.64587 28.4917 9.88393 29.1321 12.3717C29.606 14.0313 29.4845 15.8 28.7879 17.3824C28.5018 17.952 28.0478 18.4243 27.4845 18.7379C26.9213 19.0515 26.275 19.192 25.6293 19.1411C25.0791 19.1426 24.545 18.9589 24.1165 18.6205C23.6879 18.2822 23.3909 17.8099 23.2752 17.2825C22.7803 16.0149 22.3465 14.7093 21.8313 13.4437C21.4691 12.2668 20.7074 11.2466 19.6725 10.5524C18.6376 9.85817 17.3917 9.53157 16.1414 9.62676C14.9498 9.6305 13.7864 9.98284 12.8003 10.6387C11.8142 11.2945 11.0502 12.2239 10.6063 13.3079C10.2247 14.3706 10.0231 15.4873 10.0096 16.6138C10.0123 19.4375 10.9404 22.1857 12.657 24.4532C13.4551 25.6345 14.4539 26.673 15.6099 27.5235L15.8909 27.7231C16.1717 27.9144 16.5173 27.9914 16.8549 27.9378C17.1925 27.8842 17.4957 27.7043 17.7005 27.4359C17.9054 27.1675 17.996 26.8316 17.9532 26.499C17.9105 26.1665 17.7377 25.8631 17.4712 25.653C16.6395 25.0857 15.9279 24.3657 15.3757 23.5329C14.3773 22.4147 13.627 21.1052 13.1723 19.6877C12.7176 18.2701 12.5685 16.7753 12.7344 15.2982C12.8176 14.5271 13.1615 13.8055 13.7113 13.248C14.2612 12.6906 14.9854 12.3294 15.7687 12.2219C16.5168 12.068 17.2966 12.1946 17.9542 12.5768C18.6117 12.9589 19.0992 13.5688 19.3203 14.2861C19.4873 14.6554 19.6299 15.0387 19.7684 15.42C20.1757 16.5259 20.4811 17.6658 20.9658 18.7318C21.2592 19.461 21.7349 20.1063 22.349 20.6082C22.9632 21.1102 23.6963 21.4528 24.4808 21.6045C25.3747 21.793 26.3001 21.7844 27.1903 21.5794C28.0804 21.3743 28.9129 20.9781 29.6277 20.4191C30.3425 19.8602 30.9217 19.1525 31.3234 18.3474C31.7251 17.5422 31.9393 16.6596 31.9506 15.7634C32.2003 12.8355 31.4996 9.9051 29.9487 7.39091V7.39091Z" fill="white"/>
</g>
<defs>
<filter id="filter0_d_96_9" x="0" y="0" width="36" height="36" filterUnits="userSpaceOnUse" color-interpolation-filters="sRGB">
<feFlood flood-opacity="0" result="BackgroundImageFix"/>
<feColorMatrix in="SourceAlpha" type="matrix" values="0 0 0 0 0 0 0 0 0 0 0 0 0 0 0 0 0 0 127 0" result="hardAlpha"/>
<feOffset dy="4"/>
<feGaussianBlur stdDeviation="2"/>
<feComposite in2="hardAlpha" operator="out"/>
<feColorMatrix type="matrix" values="0 0 0 0 0 0 0 0 0 0 0 0 0 0 0 0 0 0 0.25 0"/>
<feBlend mode="normal" in2="BackgroundImageFix" result="effect1_dropShadow_96_9"/>
<feBlend mode="normal" in="SourceGraphic" in2="effect1_dropShadow_96_9" result="shape"/>
</filter>
</defs>
</svg>
