<svg width="28" height="33" viewBox="0 0 28 33" fill="none" xmlns="http://www.w3.org/2000/svg">
<g filter="url(#filter0_d_88_571)">
<path d="M4 21.3375V19.5411C4.03031 18.8866 4.22282 18.2537 4.55671 17.7108C4.8906 17.1679 5.35316 16.7356 5.89439 16.4607C11.0962 14.1642 16.9038 14.1642 22.1056 16.4607C22.6468 16.7356 23.1094 17.1679 23.4433 17.7108C23.7772 18.2537 23.9697 18.8866 24 19.5411V21.3375C23.9998 21.819 23.9132 22.2957 23.7453 22.7404C23.5773 23.1852 23.3313 23.5891 23.0212 23.9293C22.7112 24.2694 22.3431 24.5391 21.9382 24.7228C21.5333 24.9065 21.0993 25.0007 20.6613 25H7.33875C6.90067 25.0007 6.46675 24.9065 6.06181 24.7228C5.65687 24.5391 5.28884 24.2694 4.97877 23.9293C4.66869 23.5891 4.42265 23.1852 4.25471 22.7404C4.08676 22.2957 4.00021 21.819 4 21.3375ZM14 2.6119e-07C12.901 -0.000352942 11.8265 0.357524 10.9126 1.02837C9.99859 1.69922 9.28615 2.6529 8.86534 3.7688C8.44454 4.88471 8.33427 6.1127 8.54848 7.29749C8.7627 8.48228 9.29177 9.57063 10.0688 10.4249C10.8458 11.2792 11.8359 11.861 12.9138 12.0968C13.9917 12.3326 15.109 12.2118 16.1244 11.7496C17.1398 11.2874 18.0077 10.5046 18.6183 9.50027C19.2289 8.49592 19.5548 7.3151 19.5548 6.10714C19.555 5.30522 19.4115 4.51112 19.1325 3.77018C18.8534 3.02923 18.4443 2.35597 17.9284 1.78885C17.4126 1.22173 16.8002 0.771848 16.1261 0.464914C15.4521 0.157979 14.7296 2.26889e-07 14 2.6119e-07Z" fill="white"/>
</g>
<defs>
<filter id="filter0_d_88_571" x="0" y="0" width="28" height="33" filterUnits="userSpaceOnUse" color-interpolation-filters="sRGB">
<feFlood flood-opacity="0" result="BackgroundImageFix"/>
<feColorMatrix in="SourceAlpha" type="matrix" values="0 0 0 0 0 0 0 0 0 0 0 0 0 0 0 0 0 0 127 0" result="hardAlpha"/>
<feOffset dy="4"/>
<feGaussianBlur stdDeviation="2"/>
<feComposite in2="hardAlpha" operator="out"/>
<feColorMatrix type="matrix" values="0 0 0 0 0 0 0 0 0 0 0 0 0 0 0 0 0 0 0.25 0"/>
<feBlend mode="normal" in2="BackgroundImageFix" result="effect1_dropShadow_88_571"/>
<feBlend mode="normal" in="SourceGraphic" in2="effect1_dropShadow_88_571" result="shape"/>
</filter>
</defs>
</svg>
